<?xml version="1.0" encoding="utf-8"?>
<!-- Generator: Adobe Illustrator 21.0.0, SVG Export Plug-In . SVG Version: 6.00 Build 0)  -->
<svg version="1.2" baseProfile="tiny" id="Capa_1" xmlns="http://www.w3.org/2000/svg" xmlns:xlink="http://www.w3.org/1999/xlink"
	 x="0px" y="0px" viewBox="0 0 98.8 98.8" overflow="visible" xml:space="preserve">
<g>
	<g>
		<path fill="#8AFF7D" d="M1.9,70.5c2.9,9.6,8.8,16.1,16.6,18.3c2,0.6,4,0.8,6,0.8c10,0,18.9-6.7,21.6-16.4
			c3.3-11.9-3.6-24.3-15.5-27.6c-5.3-1.5-11.1-0.9-16,1.5c0.2-0.7,0.3-1.3,0.5-1.9C19.4,29.7,28,22.7,32.6,22.7l0.2,0
			c0.9,0,1.8-0.6,2-1.5l2.6-9.3c0.2-0.5,0.1-1.1-0.2-1.6c-0.3-0.5-0.8-0.8-1.3-0.9c-1-0.2-2-0.3-3-0.3C20.3,9.2,7.3,22.8,2.1,41.6
			C-0.6,51.2-0.7,61.8,1.9,70.5z"/>
		<path fill="#8AFF7D" d="M54,41.6c-2.7,9.6-2.8,20.2-0.2,28.9c2.9,9.6,8.8,16.1,16.6,18.3c2,0.6,4,0.8,6,0.8
			c10,0,18.9-6.7,21.6-16.4c3.3-11.9-3.6-24.3-15.5-27.6c-5.3-1.5-11.1-0.9-16,1.5c0.2-0.7,0.3-1.3,0.5-1.9
			c4.3-15.5,12.9-22.5,17.5-22.5l0.2,0c0.9,0,1.8-0.6,2-1.5l2.6-9.3c0.2-0.5,0.1-1.1-0.2-1.6c-0.3-0.5-0.8-0.8-1.3-0.9
			c-1-0.2-2-0.3-3-0.3C72.2,9.2,59.2,22.8,54,41.6z"/>
	</g>
</g>
</svg>
