<?xml version="1.0" encoding="utf-8"?>
<!-- Generator: Adobe Illustrator 19.0.0, SVG Export Plug-In . SVG Version: 6.00 Build 0)  -->
<svg version="1.1" id="Layer_1" xmlns="http://www.w3.org/2000/svg" xmlns:xlink="http://www.w3.org/1999/xlink" x="0px" y="0px"
	 viewBox="-138 251.2 323 98.8" style="enable-background:new -138 251.2 323 98.8;" xml:space="preserve">
<style type="text/css">
	.st0{fill:#BE1E2D;}
	.st1{clip-path:url(#SVGID_3_);}
	.st2{font-family:'PlainCred';}
	.st3{font-size:121.15px;}
	.st4{letter-spacing:-3;}
	.st5{letter-spacing:-2;}
</style>
<g>
	<g>
		<path class="st0" d="M-49.3,344h-30v-15.1h30c5,0,9-1.3,12-3.8c2.7-2.3,4.1-5.1,4.1-8.4c0-3.2-1.3-5.9-4-8.1
			c-3-2.4-7-3.6-12.1-3.6h-4.8c-8.6,0-15.3-2.5-20.4-7.5c-4.5-4.5-6.8-10.1-6.8-16.6s2.3-12,6.8-16.5c5-5,11.8-7.5,20.4-7.5h29.4
			V272h-29.4c-3.2,0-5.8,0.9-7.6,2.7c-1.9,1.8-2.8,3.9-2.8,6.3c0,2.4,0.8,4.4,2.5,6.1c1.9,1.9,4.6,2.8,7.9,2.8h4.8
			c9.3,0,16.7,2.8,22.3,8.5c5,5.2,7.5,11.4,7.5,18.8c0,7.4-2.5,13.5-7.4,18.5C-32.3,341.2-39.8,344-49.3,344z"/>
		<path class="st0" d="M16,272v72H0.9v-72h-22.3v-15.1h51.9l7.7,15.1H16z"/>
		<path class="st0" d="M51.4,344H34.7l23-42.9l-24-44.2h17.4l15.1,28.3l15.1-28.3h17.4L51.4,344z"/>
		<path class="st0" d="M101.4,344v-87.1h15.1v72h23.6V344H101.4z"/>
		<path class="st0" d="M182.2,344h-38.9v-87.1h38.9V272h-23.7v20.2h19.9v15.1h-19.9v21.4h23.7L182.2,344L182.2,344z"/>
	</g>
	<g>
		<g>
			<path id="SVGID_1_" class="st0" d="M-117.6,307.8h8c0,0,8.5,0.7,13.2-3.1c2.6-2.1,12.5-11.5,12.5-21.8c0-14.7-8.2-21.1-11.2-23.2
				c-3.4-2.4-9.7-2.4-9.7-2.4h-30.5v15.1h30c0,0,6.7,2.5,6.6,10.7c0,4.5-6.2,10.2-6.2,10.2h-24.5l-5.9,14.6l32.2,36.5h19.5
				L-117.6,307.8z"/>
		</g>
		<g>
			<defs>
				<path id="SVGID_2_" d="M-117.6,307.8h8c0,0,8.5,0.7,13.2-3.1c2.6-2.1,12.5-11.5,12.5-21.8c0-14.7-8.2-21.1-11.2-23.2
					c-3.4-2.4-9.7-2.4-9.7-2.4h-30.5v15.1h30c0,0,6.7,2.5,6.6,10.7c0,4.5-6.2,10.2-6.2,10.2h-24.5l-5.9,14.6l32.2,36.5h19.5
					L-117.6,307.8z"/>
			</defs>
			<clipPath id="SVGID_3_">
				<use xlink:href="#SVGID_2_"  style="overflow:visible;"/>
			</clipPath>
			<g class="st1">
				<text transform="matrix(1 0 0 1 -80.9469 344.3447)" class="st0 st2 st3 st4">s</text>
				<text transform="matrix(1 0 0 1 -18.3469 344.3447)" class="st0 st2 st3">tyl</text>
				<text transform="matrix(1 0 0 1 159.2531 344.3447)" class="st0 st2 st3 st5">e</text>
			</g>
		</g>
	</g>
</g>
</svg>
