<?xml version="1.0" encoding="utf-8"?>
<!-- Generator: Adobe Illustrator 21.0.0, SVG Export Plug-In . SVG Version: 6.00 Build 0)  -->
<svg version="1.1" baseProfile="basic" xmlns="http://www.w3.org/2000/svg" xmlns:xlink="http://www.w3.org/1999/xlink" x="0px"
	 y="0px" viewBox="0 0 958.7 789" xml:space="preserve">
<g id="Layer_3">
</g>
<g id="Layer_2">
	<path opacity="0.74" fill-rule="evenodd" clip-rule="evenodd" fill="#FFFFFF" d="M553.7,125.3c0-5.8-4.7-10.5-10.5-10.5
		c-2.8,0-5.3,1.1-7.1,2.8c-2-4.8-6.7-8.2-12.1-8.2c-4.6,0-8.6,2.3-10.9,5.9c-2.1-5.4-7.3-9.3-13.5-9.3c-5.2,0-9.8,2.8-12.3,6.9
		c-2.7,0.1-5.1,1.1-6.9,2.9c-2.6-2.3-5.9-3.7-9.6-3.7c-3.4,0-6.6,1.2-9.1,3.2c-1.8-6-7.3-10.3-13.8-10.3c-5.7,0-10.5,3.3-12.9,8
		c-2-0.8-4.2-1.2-6.5-1.2c-6.1,0-11.4,3-14.7,7.6c-1-0.3-2.2-0.5-3.3-0.5c-5.8,0-10.5,4.7-10.5,10.5c0,5.8,4.7,10.5,10.5,10.5
		c1,0,2-0.1,2.9-0.4c2.3,3.6,5.8,6.3,9.9,7.5c1.5,3.9,5.3,6.8,9.8,6.8c3.5,0,6.6-1.7,8.5-4.4c2,1,4.3,1.7,6.7,1.7
		c4.4,0,8.3-2,11-5.1c1.7,3.5,5.3,5.8,9.4,5.8c4.2,0,7.8-2.5,9.4-6c2.2,1.5,4.9,2.4,7.7,2.4c4.9,0,9.2-2.6,11.7-6.4
		c1.1,5.8,6.2,10.1,12.3,10.1c5.2,0,9.6-3.1,11.5-7.5c2.8,3.6,7.2,6,12.2,6c8.6,0,15.5-6.9,15.5-15.5c0-0.2,0-0.4,0-0.6
		C551.8,132.2,553.7,128.9,553.7,125.3z"/>
	<path opacity="0.42" fill-rule="evenodd" clip-rule="evenodd" fill="#FFFFFF" d="M833.7,229.3c0-5.8-4.7-10.5-10.5-10.5
		c-2.8,0-5.3,1.1-7.1,2.8c-2-4.8-6.7-8.2-12.1-8.2c-4.6,0-8.6,2.3-10.9,5.9c-2.1-5.4-7.3-9.3-13.5-9.3c-5.2,0-9.8,2.8-12.3,6.9
		c-2.7,0.1-5.1,1.1-6.9,2.9c-2.6-2.3-5.9-3.7-9.6-3.7c-3.4,0-6.6,1.2-9.1,3.2c-1.8-6-7.3-10.3-13.8-10.3c-5.7,0-10.5,3.3-12.9,8
		c-2-0.8-4.2-1.2-6.5-1.2c-6.1,0-11.4,3-14.7,7.6c-1-0.3-2.2-0.5-3.3-0.5c-5.8,0-10.5,4.7-10.5,10.5c0,5.8,4.7,10.5,10.5,10.5
		c1,0,2-0.1,2.9-0.4c2.3,3.6,5.8,6.3,9.9,7.5c1.5,3.9,5.3,6.8,9.8,6.8c3.5,0,6.6-1.7,8.5-4.4c2,1,4.3,1.7,6.7,1.7
		c4.4,0,8.3-2,11-5.1c1.7,3.5,5.3,5.8,9.4,5.8c4.2,0,7.8-2.5,9.4-6c2.2,1.5,4.9,2.4,7.7,2.4c4.9,0,9.2-2.6,11.7-6.4
		c1.1,5.8,6.2,10.1,12.3,10.1c5.2,0,9.6-3.1,11.5-7.5c2.8,3.6,7.2,6,12.2,6c8.6,0,15.5-6.9,15.5-15.5c0-0.2,0-0.4,0-0.6
		C831.8,236.2,833.7,232.9,833.7,229.3z"/>
	<path opacity="0.44" fill-rule="evenodd" clip-rule="evenodd" fill="#FFFFFF" d="M82.9,196.6c0-3.3,2.6-5.9,5.9-5.9
		c1.6,0,3,0.6,4,1.6c1.1-2.7,3.8-4.6,6.9-4.6c2.6,0,4.9,1.3,6.2,3.3c1.2-3.1,4.1-5.3,7.6-5.3c3,0,5.5,1.6,7,3.9
		c1.5,0,2.9,0.6,3.9,1.6c1.4-1.3,3.3-2.1,5.4-2.1c2,0,3.7,0.7,5.1,1.8c1-3.4,4.1-5.9,7.8-5.9c3.2,0,6,1.8,7.3,4.5
		c1.1-0.4,2.4-0.7,3.7-0.7c3.4,0,6.5,1.7,8.3,4.3c0.6-0.2,1.2-0.3,1.9-0.3c3.3,0,5.9,2.7,5.9,5.9c0,3.3-2.7,5.9-5.9,5.9
		c-0.6,0-1.1-0.1-1.6-0.2c-1.3,2-3.3,3.5-5.6,4.3c-0.8,2.2-3,3.8-5.5,3.8c-2,0-3.8-1-4.8-2.5c-1.1,0.6-2.4,0.9-3.8,0.9
		c-2.5,0-4.7-1.1-6.2-2.9c-1,2-3,3.3-5.3,3.3c-2.4,0-4.4-1.4-5.4-3.4c-1.3,0.8-2.8,1.3-4.4,1.3c-2.8,0-5.2-1.5-6.6-3.6
		c-0.6,3.3-3.5,5.7-7,5.7c-2.9,0-5.4-1.8-6.5-4.3c-1.6,2.1-4.1,3.4-6.9,3.4c-4.8,0-8.8-3.9-8.8-8.8c0-0.1,0-0.2,0-0.4
		C84,200.5,82.9,198.6,82.9,196.6z"/>
	<path opacity="0.4" fill-rule="evenodd" clip-rule="evenodd" fill="#FFFFFF" d="M321.5,260.5c0-2.1-1.7-3.8-3.8-3.8
		c-1,0-1.9,0.4-2.6,1c-0.7-1.7-2.4-2.9-4.4-2.9c-1.6,0-3.1,0.8-3.9,2.1c-0.7-1.9-2.6-3.3-4.8-3.3c-1.9,0-3.5,1-4.4,2.5
		c-1,0-1.8,0.4-2.5,1c-0.9-0.8-2.1-1.3-3.5-1.3c-1.2,0-2.4,0.4-3.3,1.2c-0.6-2.2-2.6-3.7-5-3.7c-2,0-3.8,1.2-4.6,2.9
		c-0.7-0.3-1.5-0.4-2.3-0.4c-2.2,0-4.1,1.1-5.3,2.7c-0.4-0.1-0.8-0.2-1.2-0.2c-2.1,0-3.8,1.7-3.8,3.8s1.7,3.8,3.8,3.8
		c0.4,0,0.7-0.1,1-0.1c0.8,1.3,2.1,2.3,3.6,2.7c0.5,1.4,1.9,2.4,3.5,2.4c1.3,0,2.4-0.6,3.1-1.6c0.7,0.4,1.5,0.6,2.4,0.6
		c1.6,0,3-0.7,4-1.8c0.6,1.2,1.9,2.1,3.4,2.1c1.5,0,2.8-0.9,3.4-2.2c0.8,0.5,1.8,0.8,2.8,0.8c1.8,0,3.3-0.9,4.2-2.3
		c0.4,2.1,2.2,3.6,4.4,3.6c1.9,0,3.4-1.1,4.1-2.7c1,1.3,2.6,2.2,4.4,2.2c3.1,0,5.6-2.5,5.6-5.6c0-0.1,0-0.2,0-0.2
		C320.8,263,321.5,261.8,321.5,260.5z"/>
	<path opacity="0.21" fill-rule="evenodd" clip-rule="evenodd" fill="#FFFFFF" d="M227,338.5c0-2.1-1.7-3.8-3.8-3.8
		c-1,0-1.9,0.4-2.6,1c-0.7-1.7-2.4-2.9-4.4-2.9c-1.6,0-3.1,0.8-3.9,2.1c-0.7-1.9-2.6-3.3-4.8-3.3c-1.9,0-3.5,1-4.4,2.5
		c-1,0-1.8,0.4-2.5,1c-0.9-0.8-2.1-1.3-3.5-1.3c-1.2,0-2.4,0.4-3.3,1.2c-0.6-2.2-2.6-3.7-5-3.7c-2,0-3.8,1.2-4.6,2.9
		c-0.7-0.3-1.5-0.4-2.3-0.4c-2.2,0-4.1,1.1-5.3,2.7c-0.4-0.1-0.8-0.2-1.2-0.2c-2.1,0-3.8,1.7-3.8,3.8s1.7,3.8,3.8,3.8
		c0.4,0,0.7-0.1,1-0.1c0.8,1.3,2.1,2.3,3.6,2.7c0.5,1.4,1.9,2.4,3.5,2.4c1.3,0,2.4-0.6,3.1-1.6c0.7,0.4,1.5,0.6,2.4,0.6
		c1.6,0,3-0.7,4-1.8c0.6,1.2,1.9,2.1,3.4,2.1c1.5,0,2.8-0.9,3.4-2.2c0.8,0.5,1.8,0.8,2.8,0.8c1.8,0,3.3-0.9,4.2-2.3
		c0.4,2.1,2.2,3.6,4.4,3.6c1.9,0,3.4-1.1,4.1-2.7c1,1.3,2.6,2.2,4.4,2.2c3.1,0,5.6-2.5,5.6-5.6c0-0.1,0-0.2,0-0.2
		C226.3,341,227,339.8,227,338.5z"/>
	<path opacity="0.21" fill-rule="evenodd" clip-rule="evenodd" fill="#FFFFFF" d="M575.3,352.8c0-3.2-2.6-5.9-5.9-5.9
		c-1.5,0-3,0.6-4,1.6c-1.1-2.7-3.7-4.6-6.8-4.6c-2.6,0-4.8,1.3-6.1,3.3c-1.2-3-4.1-5.2-7.6-5.2c-2.9,0-5.5,1.6-6.9,3.9
		c-1.5,0-2.9,0.6-3.9,1.6c-1.4-1.3-3.3-2.1-5.4-2.1c-1.9,0-3.7,0.7-5.1,1.8c-1-3.4-4.1-5.8-7.8-5.8c-3.2,0-5.9,1.8-7.2,4.5
		c-1.1-0.4-2.3-0.7-3.6-0.7c-3.4,0-6.4,1.7-8.2,4.3c-0.6-0.2-1.2-0.3-1.9-0.3c-3.2,0-5.9,2.6-5.9,5.9s2.6,5.9,5.9,5.9
		c0.6,0,1.1-0.1,1.6-0.2c1.3,2,3.2,3.5,5.5,4.2c0.8,2.2,3,3.8,5.5,3.8c2,0,3.7-1,4.8-2.5c1.1,0.6,2.4,0.9,3.8,0.9
		c2.5,0,4.7-1.1,6.2-2.9c1,1.9,2.9,3.3,5.3,3.3c2.3,0,4.4-1.4,5.3-3.4c1.2,0.8,2.7,1.3,4.3,1.3c2.8,0,5.2-1.4,6.6-3.6
		c0.6,3.2,3.5,5.7,6.9,5.7c2.9,0,5.4-1.7,6.5-4.2c1.6,2,4.1,3.4,6.9,3.4c4.8,0,8.7-3.9,8.7-8.7c0-0.1,0-0.2,0-0.4
		C574.2,356.7,575.3,354.8,575.3,352.8z"/>
</g>
</svg>
