<?xml version="1.0" encoding="utf-8"?>
<!-- Generator: Adobe Illustrator 21.0.0, SVG Export Plug-In . SVG Version: 6.00 Build 0)  -->
<svg version="1.1" baseProfile="basic" id="Layer_1"
	 xmlns="http://www.w3.org/2000/svg" xmlns:xlink="http://www.w3.org/1999/xlink" x="0px" y="0px" viewBox="0 0 115 34"
	 xml:space="preserve">
<g>
	<g opacity="0.4">
		<path d="M22.1,4c0,0.5-0.1,1.1-0.4,1.7s-0.6,1.3-1,1.9s-0.9,1.2-1.5,1.8C18.6,10,18,10.6,17.4,11s-1.2,0.8-1.9,1.1
			s-1.2,0.4-1.8,0.4c-0.3,0-0.5,0-0.8-0.1s-0.5-0.1-0.6-0.3c-0.2-0.1-0.3-0.3-0.5-0.5s-0.2-0.5-0.2-0.8c0-0.1,0-0.2,0-0.3
			c0-0.1,0.1-0.2,0.2-0.2s0.2,0.1,0.3,0.2c0.1,0.1,0.2,0.2,0.4,0.2c0.4,0,0.9-0.1,1.5-0.3c0.5-0.2,1.1-0.5,1.6-0.8s1-0.7,1.5-1.2
			S18,7.5,18.4,7s0.7-0.9,0.9-1.3c0.2-0.4,0.3-0.8,0.3-1c0-0.2-0.1-0.4-0.2-0.5C19.2,4.1,19,4,18.6,4c-0.7,0-1.4,0.2-2.1,0.6
			C15.7,4.9,15,5.4,14.2,6s-1.6,1.4-2.3,2.2c-0.8,0.8-1.5,1.7-2.2,2.7s-1.3,1.9-2,2.9c-0.6,1-1.1,2-1.6,3c-0.4,1-0.8,1.9-1,2.8
			c-0.3,0.9-0.4,1.7-0.4,2.4c0,0.1,0,0.3,0.1,0.4c0.1,0.1,0.2,0.2,0.4,0.2c0.5,0,1-0.1,1.6-0.3s1.3-0.5,2-0.7
			c0.7-0.3,1.4-0.5,2.2-0.7s1.6-0.3,2.4-0.3c0.4,0,0.7,0.1,1,0.4s0.4,0.6,0.4,1.1c0,0.4-0.1,0.6-0.4,0.8c-0.2,0.2-0.5,0.3-0.7,0.3
			c-0.7,0-1.4,0.1-2.1,0.3c-0.7,0.2-1.4,0.4-2.1,0.5S8,24.1,7.3,24.3s-1.6,0.3-2.4,0.3c-0.4,0-0.8,0-1.1-0.1c-0.4-0.1-0.7-0.2-1-0.4
			c-0.3-0.2-0.5-0.4-0.7-0.7s-0.3-0.6-0.3-0.9c0-0.6,0.1-1.4,0.4-2.3c0.3-0.9,0.6-1.9,1.1-3c0.5-1.1,1-2.2,1.7-3.4
			c0.6-1.2,1.4-2.3,2.2-3.4S8.8,8,9.7,7c0.9-1,1.9-1.9,2.9-2.7s2-1.4,3.1-1.8C16.8,2,17.9,1.8,19,1.8c0.6,0,1,0.1,1.4,0.2
			s0.7,0.3,1,0.5s0.4,0.4,0.5,0.7C22,3.4,22.1,3.7,22.1,4z"/>
		<path d="M27.9,20.7c0,0.2-0.1,0.4-0.3,0.6s-0.4,0.4-0.7,0.6c-0.3,0.2-0.6,0.4-1,0.5s-0.7,0.2-1.1,0.2c-0.3,0-0.6-0.1-0.9-0.2
			s-0.5-0.4-0.7-0.8c0-0.1-0.1-0.1-0.1-0.1c-0.1,0-0.3,0.1-0.5,0.2c-0.3,0.2-0.6,0.3-1,0.5c-0.4,0.2-0.9,0.4-1.5,0.5s-1.3,0.2-2,0.2
			c-1,0-1.7-0.2-2.1-0.5c-0.4-0.4-0.6-0.8-0.6-1.4c0-0.6,0.2-1.2,0.7-2c0.4-0.7,1-1.4,1.8-2c0.7-0.6,1.6-1.1,2.5-1.6S22,15,23,15
			c0.4,0,0.6,0.1,0.8,0.2c0.2,0.1,0.2,0.3,0.2,0.5c0,0.2,0,0.4-0.1,0.6c-0.1,0.2-0.2,0.4-0.4,0.6s-0.3,0.3-0.5,0.4
			c-0.2,0.1-0.4,0.2-0.6,0.2c-0.4,0-0.9,0.1-1.4,0.3c-0.5,0.2-1,0.5-1.4,0.8c-0.4,0.3-0.8,0.6-1.1,0.9c-0.3,0.3-0.4,0.6-0.4,0.8
			c0,0.1,0.1,0.3,0.2,0.4s0.4,0.1,0.7,0.1c0.3,0,0.7-0.1,1.1-0.2s0.9-0.4,1.3-0.6c0.5-0.3,1-0.6,1.4-0.9s1-0.7,1.4-1.1
			c0.1-0.1,0.2-0.2,0.4-0.3c0.1-0.1,0.3-0.1,0.4-0.1c0.1,0,0.2,0,0.3,0.1s0.1,0.3,0.1,0.5c0,0.3,0,0.5-0.1,0.8
			c-0.1,0.3-0.1,0.5-0.1,0.8c0,0.2,0,0.4,0.1,0.5c0.1,0.1,0.2,0.2,0.4,0.2c0.2,0,0.5,0,0.7-0.1s0.5-0.1,0.8-0.2
			c0.2,0,0.4,0.1,0.5,0.2C27.9,20.5,27.9,20.6,27.9,20.7z"/>
		<path d="M36.1,16.4c0,0.2,0,0.4-0.1,0.5c-0.1,0.1-0.3,0.2-0.6,0.2h-1.3c-0.8,0-1.4,0-1.9,0.1c-0.5,0-0.9,0.1-1.2,0.2
			c0,0.2-0.1,0.5-0.1,0.7s0,0.5,0,0.8c0,0.6,0.1,1.1,0.3,1.4c0.2,0.4,0.5,0.6,0.9,0.6c0.3,0,0.5,0,0.7-0.1c0.2-0.1,0.4-0.2,0.5-0.3
			s0.3-0.2,0.5-0.3s0.3-0.1,0.5-0.1c0.2,0,0.3,0.1,0.4,0.2s0.2,0.3,0.2,0.5c0,0.3-0.1,0.6-0.3,0.9s-0.4,0.5-0.7,0.7s-0.6,0.4-1,0.5
			c-0.4,0.1-0.8,0.2-1.2,0.2c-0.4,0-0.8-0.1-1.2-0.2c-0.4-0.1-0.8-0.4-1.1-0.7s-0.6-0.8-0.8-1.3s-0.3-1.2-0.3-2c0-0.1,0-0.3,0-0.4
			s0-0.3,0-0.4c0,0-0.1,0-0.2,0c-0.1,0-0.3,0-0.4,0s-0.3,0-0.5,0c-0.3,0-0.5,0-0.6-0.2c-0.1-0.1-0.2-0.3-0.2-0.5
			c0-0.3,0.1-0.6,0.2-0.9s0.3-0.5,0.6-0.6c0.1,0,0.3-0.1,0.5-0.1s0.5-0.1,0.8-0.2c0.2-0.9,0.5-1.8,0.8-2.7c0.3-0.9,0.6-1.6,1-2.3
			c0.4-0.6,0.7-1.2,1.1-1.6c0.4-0.4,0.7-0.6,0.9-0.6c0.3,0,0.6,0.1,0.8,0.3c0.2,0.2,0.2,0.5,0.2,0.8c0,0.4-0.1,0.7-0.2,1.1
			c-0.1,0.4-0.3,0.8-0.5,1.3c-0.2,0.5-0.4,0.9-0.6,1.4c-0.2,0.5-0.4,1-0.6,1.6c0.4,0,0.8-0.1,1.2-0.1c0.4,0,0.7,0,1.1,0
			c0.3,0,0.6,0,0.9,0.1c0.3,0,0.5,0.1,0.8,0.2c0.2,0.1,0.4,0.2,0.6,0.4C36.1,15.9,36.1,16.1,36.1,16.4z"/>
		<path d="M41.1,20.7c0,0.3-0.1,0.6-0.3,0.9c-0.2,0.3-0.5,0.5-0.8,0.8s-0.7,0.4-1.1,0.5s-0.8,0.2-1.2,0.2c-0.3,0-0.6,0-0.9-0.1
			c-0.3-0.1-0.6-0.2-0.8-0.4s-0.4-0.4-0.5-0.8s-0.2-0.7-0.2-1.1c0-0.5,0.1-1,0.2-1.5s0.2-1,0.3-1.4c0.1-0.4,0.2-0.8,0.3-1
			s0.2-0.4,0.2-0.4c0.1-0.1,0.3-0.1,0.5-0.2c0.2-0.1,0.4-0.1,0.6-0.2c0.2-0.1,0.4-0.1,0.6-0.1s0.3-0.1,0.4-0.1c0.2,0,0.3,0,0.3,0.1
			s0.1,0.2,0.1,0.3c0,0.1,0,0.3-0.1,0.5s-0.2,0.5-0.3,0.8c-0.1,0.3-0.2,0.6-0.3,1s-0.1,0.6-0.1,0.8c0,0.4,0.1,0.7,0.3,1
			s0.5,0.4,0.9,0.4c0.2,0,0.4,0,0.5-0.1s0.2-0.1,0.3-0.1s0.1-0.1,0.2-0.1s0.2-0.1,0.3-0.1c0.1,0,0.3,0,0.4,0.1S41,20.5,41.1,20.7z
			 M39.8,11.2c0,0.1,0,0.3-0.1,0.6c-0.1,0.3-0.2,0.5-0.3,0.8c-0.2,0.3-0.4,0.5-0.7,0.7s-0.7,0.3-1.3,0.4c-0.1,0-0.3,0-0.4-0.1
			c-0.1,0-0.2-0.1-0.3-0.1s-0.1-0.2-0.1-0.3c0-0.1,0-0.2,0.1-0.4c0-0.2,0.1-0.4,0.2-0.6c0.1-0.2,0.1-0.4,0.2-0.6s0.2-0.4,0.2-0.5
			c0.1-0.2,0.3-0.3,0.5-0.4c0.2-0.1,0.4-0.1,0.7-0.1c0.1,0,0.3,0,0.4,0s0.3,0,0.4,0.1s0.3,0.1,0.3,0.2C39.8,11,39.8,11.1,39.8,11.2z
			"/>
		<path d="M53.7,20.2c0,0.3-0.2,0.5-0.5,0.8s-0.7,0.6-1.2,0.8c-0.5,0.3-1,0.5-1.5,0.6s-1.1,0.3-1.6,0.3c-0.3,0-0.6,0-0.8-0.1
			c-0.2-0.1-0.3-0.3-0.4-0.4c-0.1-0.2-0.2-0.4-0.2-0.7c0-0.3,0-0.6,0-1c0-0.1,0-0.3-0.1-0.4s-0.2-0.1-0.4-0.1
			c-0.1,0-0.3,0.1-0.7,0.4s-0.7,0.5-1,0.8c-0.4,0.3-0.7,0.6-1,0.9c-0.3,0.3-0.5,0.5-0.6,0.5c-0.1,0.1-0.2,0.1-0.3,0.2
			s-0.3,0.1-0.5,0.1c-0.2,0-0.4-0.1-0.7-0.2S42,22.3,42,22.1c0-0.2,0-0.4,0.2-0.7c0.1-0.3,0.2-0.6,0.3-0.9c0.1-0.3,0.2-0.6,0.3-0.9
			c0.1-0.3,0.2-0.6,0.2-0.8s-0.1-0.4-0.2-0.6c-0.1-0.1-0.3-0.2-0.7-0.2c-0.2,0-0.5,0.1-0.7,0.2s-0.4,0.2-0.6,0.2
			c-0.2,0-0.3-0.1-0.4-0.2s-0.1-0.3-0.1-0.5c0-0.3,0.2-0.6,0.4-0.9c0.2-0.2,0.5-0.4,0.9-0.6c0.4-0.2,1-0.3,1.7-0.3
			c0.3,0,0.6,0,0.8,0.1s0.4,0.1,0.5,0.3c0.1,0.1,0.2,0.2,0.3,0.4c0,0.1,0.1,0.3,0.1,0.4c0,0.2,0,0.3-0.1,0.5c0,0.2-0.1,0.4-0.2,0.5
			s-0.1,0.3-0.2,0.4c0,0.1-0.1,0.2-0.1,0.3c0,0.1,0.1,0.2,0.2,0.2c0.1,0,0.3-0.1,0.6-0.3s0.7-0.4,1.1-0.7s0.9-0.5,1.3-0.7
			S48.6,17,49,17c0.2,0,0.4,0,0.5,0c0.2,0,0.3,0.1,0.5,0.2c0.1,0.1,0.2,0.2,0.3,0.3c0.1,0.1,0.1,0.3,0.1,0.5c0,0.2,0,0.4-0.1,0.5
			s-0.1,0.3-0.1,0.5c0,0.1-0.1,0.3-0.1,0.4c0,0.1-0.1,0.3-0.1,0.5c0,0.1,0,0.3,0.1,0.4c0.1,0.2,0.2,0.3,0.5,0.3c0.2,0,0.5,0,0.7-0.1
			s0.5-0.2,0.8-0.3s0.5-0.2,0.7-0.3s0.4-0.1,0.5-0.1c0.1,0,0.3,0,0.3,0.1C53.6,19.9,53.7,20,53.7,20.2z"/>
		<path d="M77.7,8c0,0.8-0.2,1.6-0.7,2.6c-0.5,0.9-1.2,1.8-2,2.7c-0.9,0.9-1.9,1.7-3.2,2.4c-1.2,0.7-2.6,1.2-4.1,1.6
			c-0.3,0.1-0.5,0.1-0.7,0.1s-0.2,0-0.2,0.1c0,0.1,0.1,0.3,0.2,0.5s0.3,0.4,0.5,0.7c0.2,0.3,0.4,0.5,0.7,0.8
			c0.3,0.3,0.5,0.5,0.8,0.7c0.3,0.2,0.5,0.4,0.7,0.5s0.4,0.2,0.6,0.2c0.2,0,0.4,0,0.5-0.1s0.2-0.2,0.3-0.3s0.1-0.2,0.2-0.3
			c0-0.1,0.1-0.1,0.2-0.1c0.1,0,0.2,0,0.3,0.2c0.1,0.1,0.2,0.2,0.2,0.4s0.1,0.3,0.2,0.4s0.1,0.3,0.1,0.4c0,0.4-0.1,0.8-0.3,1
			c-0.2,0.3-0.5,0.5-0.8,0.6c-0.3,0.1-0.6,0.2-1,0.3s-0.6,0.1-0.9,0.1c-0.5,0-1-0.1-1.5-0.4c-0.5-0.3-0.9-0.6-1.3-1
			c-0.4-0.4-0.8-0.8-1.1-1.3c-0.3-0.5-0.6-0.9-0.8-1.3c-0.2-0.4-0.4-0.8-0.5-1.1s-0.2-0.5-0.2-0.6c0-0.3,0.1-0.6,0.3-0.9
			s0.5-0.5,0.8-0.6c1-0.1,1.9-0.4,2.8-0.7c0.9-0.3,1.7-0.7,2.4-1.1c0.7-0.4,1.4-0.9,2-1.4s1.1-1,1.5-1.5c0.4-0.5,0.7-1,1-1.4
			c0.2-0.5,0.3-0.9,0.3-1.2c0-0.3-0.1-0.6-0.3-0.7c-0.2-0.2-0.5-0.3-0.9-0.3c-1,0-2,0.2-3,0.7c-0.9,0.5-1.8,1.1-2.7,1.9
			c-0.8,0.8-1.6,1.7-2.4,2.7c-0.7,1-1.4,2-1.9,3c-0.6,1-1,2-1.4,3s-0.7,1.8-0.9,2.5c-0.1,0.2-0.2,0.3-0.4,0.5
			c-0.2,0.1-0.4,0.3-0.6,0.4s-0.5,0.2-0.7,0.2s-0.4,0.1-0.6,0.1c-0.2,0-0.3,0-0.5-0.1c-0.2-0.1-0.3-0.2-0.3-0.3c0-0.1,0-0.2,0.1-0.3
			s0.1-0.2,0.2-0.3c0.3-1.1,0.7-2.1,1-3.1c0.3-1,0.6-2,0.8-3s0.4-2,0.6-3s0.2-2,0.2-3c0-0.1,0-0.3,0-0.3c0-0.1-0.1-0.1-0.1-0.2
			c0-0.1-0.1-0.1-0.1-0.1c0,0,0-0.1,0-0.1c0-0.1,0.1-0.3,0.2-0.4c0.2-0.1,0.3-0.2,0.6-0.3S62,8,62.3,7.9s0.5-0.1,0.6-0.1
			c0.2,0,0.4,0.1,0.6,0.2c0.1,0.1,0.3,0.2,0.3,0.4c0.1,0.2,0.1,0.3,0.1,0.5c0,0.2,0,0.3,0,0.5c0,0.1,0,0.3-0.1,0.7s-0.1,0.7-0.2,1
			c-0.1,0.4-0.2,0.7-0.2,1s-0.1,0.4-0.2,0.5c0.8-1.3,1.7-2.4,2.7-3.3s2-1.7,2.9-2.3c1-0.6,1.9-1.1,2.8-1.4C72.5,5.1,73.2,5,73.8,5
			c0.7,0,1.3,0.1,1.8,0.2c0.5,0.2,0.9,0.3,1.2,0.6s0.6,0.6,0.7,1C77.7,7.2,77.7,7.6,77.7,8z"/>
		<path d="M83.8,17.2c0,0.3-0.1,0.5-0.2,0.8s-0.3,0.4-0.5,0.6c-0.2,0.2-0.4,0.3-0.6,0.4c-0.2,0.1-0.4,0.2-0.6,0.2
			c0,0.5-0.3,1.1-0.6,1.6s-0.8,0.9-1.4,1.3s-1.2,0.6-1.9,0.9c-0.7,0.2-1.4,0.3-2.1,0.3c-1.2,0-2.1-0.2-2.6-0.7s-0.8-1-0.8-1.7
			c0-0.6,0.2-1.3,0.6-2c0.4-0.7,1-1.4,1.7-2c0.7-0.6,1.6-1.1,2.5-1.5c1-0.4,2-0.6,3.1-0.6c0.1,0,0.2,0,0.3,0s0.2,0,0.3,0
			c0.2,0,0.3,0.1,0.3,0.2c0.1,0.1,0.1,0.3,0.1,0.4c0,0.1,0,0.3-0.1,0.5s-0.1,0.3-0.2,0.5c-0.1,0.2-0.1,0.3-0.2,0.4
			c-0.1,0.1-0.2,0.2-0.3,0.2c-0.7,0.1-1.3,0.2-2,0.4s-1.3,0.4-1.8,0.7c-0.6,0.3-1,0.6-1.4,1s-0.5,0.8-0.5,1.3c0,0.2,0.1,0.4,0.2,0.6
			c0.1,0.2,0.4,0.3,0.7,0.3c0.7,0,1.4-0.1,1.9-0.4s1-0.6,1.3-1s0.6-0.8,0.8-1.3s0.3-0.8,0.3-1h0c0.4,0,0.7,0,0.9,0s0.4,0,0.6,0
			c0.2,0,0.3,0,0.4,0s0.2,0,0.4-0.1c0.1,0,0.3-0.1,0.5-0.1c0.2-0.1,0.4-0.1,0.8-0.2C83.7,16.9,83.8,17,83.8,17.2z"/>
		<path d="M94.1,22.9c0,0.1,0,0.2,0,0.4S94,23.6,94,23.7c0,0.2-0.1,0.4-0.2,0.5c-0.1,0.1-0.2,0.2-0.4,0.3c-0.2,0.1-0.3,0.1-0.5,0.2
			s-0.4,0.1-0.6,0.1C92,24.9,91.8,25,91.5,25s-0.5,0.1-0.8,0.2c-0.6,1.4-1.2,2.6-1.9,3.6c-0.7,1-1.5,1.8-2.3,2.5
			c-0.8,0.7-1.6,1.1-2.3,1.5c-0.8,0.3-1.5,0.5-2.1,0.5c-0.8,0-1.4-0.2-1.9-0.7s-0.7-1.1-0.7-1.9c0-0.8,0.3-1.6,0.8-2.3
			c0.6-0.7,1.3-1.4,2.2-2c0.9-0.6,1.9-1.2,2.9-1.6c1.1-0.5,2.2-0.9,3.2-1.2c0-0.2,0.1-0.5,0.1-0.7c0-0.2,0-0.5,0-0.7
			c-0.4,0.2-0.8,0.3-1.3,0.5c-0.4,0.1-0.8,0.2-1.3,0.3C85.6,23,85.2,23,84.7,23c-0.3,0-0.6,0-0.9-0.1c-0.3-0.1-0.6-0.2-0.8-0.4
			c-0.2-0.2-0.4-0.4-0.5-0.7c-0.1-0.3-0.2-0.6-0.2-1.1c0-0.5,0.2-1.1,0.6-1.7c0.4-0.6,1-1.2,1.7-1.7c0.7-0.5,1.6-1,2.5-1.3
			c1-0.4,2-0.5,3.1-0.5c0.3,0.1,0.4,0.2,0.5,0.3c0.1,0.1,0.1,0.2,0.1,0.2c0,0.1,0,0.3-0.1,0.4s-0.1,0.3-0.1,0.4
			c-0.1,0.1-0.1,0.3-0.2,0.4c-0.1,0.1-0.1,0.2-0.2,0.2c-0.1,0.1-0.2,0.3-0.4,0.4s-0.3,0.1-0.5,0.1c-0.3,0-0.6,0.1-1.1,0.3
			c-0.5,0.2-1,0.4-1.5,0.6s-0.9,0.5-1.3,0.8C85.2,20,85,20.3,85,20.5c0,0.1,0.1,0.2,0.2,0.3s0.3,0.1,0.5,0.1c0.3,0,0.6,0,1-0.1
			s0.8-0.2,1.2-0.4c0.4-0.2,0.7-0.4,1.1-0.6s0.6-0.5,0.7-0.8c0,0,0.1-0.1,0.1-0.1c0,0,0.1-0.1,0.1-0.1c0.1-0.1,0.2-0.1,0.3-0.2
			s0.3-0.2,0.6-0.3c0.2-0.1,0.4-0.1,0.5-0.1c0.1,0,0.3,0,0.4,0c0.2,0,0.4,0.1,0.5,0.2c0.1,0.1,0.2,0.3,0.2,0.4v0.1
			c-0.1,0.7-0.2,1.5-0.3,2.1c-0.1,0.7-0.3,1.3-0.4,1.9c0.5-0.1,0.9-0.2,1.3-0.3c0.4-0.1,0.7-0.1,0.9-0.1
			C93.9,22.4,94.1,22.6,94.1,22.9z M88,26c-0.8,0.3-1.7,0.6-2.4,0.9s-1.5,0.7-2.1,1s-1.1,0.7-1.4,1.1s-0.5,0.8-0.5,1.2
			c0,0.4,0.1,0.6,0.3,0.8c0.2,0.2,0.5,0.3,0.8,0.3c0.4,0,0.8-0.1,1.3-0.3s1-0.5,1.5-1c0.5-0.4,1-1,1.4-1.6S87.7,26.9,88,26z"/>
		<path d="M105.6,20.8c0,0.2-0.1,0.4-0.2,0.6s-0.4,0.5-0.6,0.7c-0.3,0.2-0.6,0.4-1,0.6c-0.4,0.1-0.8,0.2-1.2,0.2
			c-0.5,0-0.8-0.1-1.1-0.2s-0.4-0.2-0.6-0.4c-0.1-0.1-0.2-0.3-0.2-0.4c0-0.1,0-0.2,0-0.3c0-0.4,0-0.5,0-0.6c0-0.1,0-0.1,0-0.1
			c0,0-0.2,0.1-0.5,0.3s-0.6,0.4-1.1,0.6c-0.4,0.2-0.9,0.4-1.4,0.6s-1.1,0.3-1.7,0.3c-0.4,0-0.8,0-1-0.1s-0.4-0.2-0.6-0.4
			s-0.3-0.4-0.3-0.6c-0.1-0.2-0.1-0.5-0.1-0.8c0-0.2,0-0.4,0.1-0.7c0.1-0.3,0.2-0.6,0.2-0.9s0.2-0.5,0.2-0.8
			c0.1-0.2,0.1-0.4,0.1-0.4c0-0.1-0.1-0.2-0.2-0.3c-0.1,0-0.3-0.1-0.4-0.1c-0.2,0-0.3,0-0.5,0s-0.4,0.1-0.5,0.1
			c-0.2,0-0.3,0.1-0.4,0.1c-0.1,0-0.2,0-0.2,0c-0.2,0-0.3,0-0.3-0.1s-0.1-0.1-0.2-0.2c0-0.1-0.1-0.1-0.1-0.3c0-0.3,0.1-0.6,0.4-0.9
			c0.3-0.3,0.6-0.5,0.9-0.7s0.7-0.4,1.1-0.5s0.7-0.2,0.9-0.2c0.2,0,0.3,0,0.5,0.1c0.2,0,0.3,0.1,0.5,0.2c0.2,0.1,0.3,0.2,0.4,0.4
			s0.2,0.3,0.2,0.6c0,0.5-0.1,1-0.2,1.4c-0.1,0.4-0.2,0.8-0.2,1.1c0,0.2,0.1,0.4,0.2,0.5c0.1,0.1,0.3,0.2,0.7,0.2
			c0.5,0,1-0.1,1.4-0.2s0.8-0.4,1.2-0.6s0.7-0.5,1.1-0.8s0.6-0.5,0.9-0.8c0.3-0.2,0.5-0.4,0.8-0.6c0.2-0.2,0.4-0.2,0.6-0.2
			c0.2,0,0.4,0.1,0.5,0.2c0.1,0.1,0.2,0.3,0.2,0.4s0,0.4-0.1,0.5s-0.2,0.4-0.3,0.6s-0.2,0.5-0.3,0.7c-0.1,0.3-0.1,0.5-0.1,0.9
			c0,0.6,0.3,0.8,0.9,0.8c0.3,0,0.5,0,0.7-0.1c0.2-0.1,0.3-0.1,0.5-0.1C105.4,20.4,105.6,20.5,105.6,20.8z"/>
		<path d="M114.3,16.5c0,0.4-0.2,0.8-0.5,1.2s-0.7,0.9-1.3,1.3s-1.1,0.8-1.8,1s-1.4,0.5-2.2,0.6c0,0.1,0.1,0.2,0.2,0.3
			c0.1,0.1,0.3,0.1,0.6,0.2c0.3,0,0.6,0.1,1.1,0.1c0.4,0,0.7,0,1-0.1s0.5-0.2,0.7-0.3c0.2-0.1,0.4-0.2,0.6-0.3
			c0.2-0.1,0.3-0.1,0.6-0.1c0.4,0,0.7,0.2,0.7,0.5s-0.1,0.7-0.4,1s-0.7,0.6-1.1,0.8c-0.5,0.2-1,0.4-1.5,0.5
			c-0.6,0.1-1.2,0.2-1.7,0.2c-0.7,0-1.3-0.1-1.8-0.2s-0.9-0.4-1.2-0.6s-0.6-0.5-0.7-0.9c-0.2-0.3-0.2-0.7-0.2-1.1
			c0-0.6,0.2-1.2,0.5-1.8c0.3-0.6,0.8-1.2,1.4-1.8c0.6-0.5,1.3-1,2.1-1.3s1.7-0.5,2.6-0.5c0.9,0,1.6,0.1,2,0.4
			C114.1,15.7,114.3,16.1,114.3,16.5z M111.3,17c0-0.1-0.1-0.2-0.2-0.3s-0.3-0.1-0.4-0.1c-0.2,0-0.5,0.1-0.8,0.2s-0.6,0.3-0.8,0.5
			c-0.3,0.2-0.5,0.4-0.7,0.7c-0.2,0.3-0.3,0.5-0.3,0.8c0,0.1,0.1,0.2,0.2,0.2c0.3,0,0.6-0.1,0.9-0.2s0.7-0.3,1-0.5
			c0.3-0.2,0.6-0.4,0.8-0.6C111.2,17.4,111.3,17.2,111.3,17z"/>
		<path d="M6.6,27.6c-0.1-0.1-0.3-0.1-0.4-0.1c-0.2,0-0.3,0-0.5,0c-0.7,0-1.2,0.2-1.6,0.6s-0.6,0.9-0.6,1.4c0,0.4,0.2,0.8,0.5,1
			c0.3,0.3,0.7,0.4,1.1,0.4c0.2,0,0.4,0,0.6-0.1s0.4-0.1,0.6-0.2L6,31.3c-0.2,0.1-0.3,0.1-0.5,0.2s-0.4,0-0.7,0
			c-0.5,0-1-0.2-1.4-0.5s-0.6-0.9-0.6-1.5c0-0.7,0.3-1.4,0.8-1.9c0.5-0.5,1.2-0.8,2.1-0.8c0.2,0,0.4,0,0.6,0c0.2,0,0.3,0.1,0.5,0.1
			L6.6,27.6z"/>
		<path d="M10.3,31.5H7.7L8.4,27h0.7l-0.7,3.9h2L10.3,31.5z"/>
		<path d="M14.8,27.5H13l-0.2,1.4h1.4l-0.1,0.5h-1.4l-0.3,1.4h2l-0.1,0.5h-2.6l0.8-4.5h2.4L14.8,27.5z"/>
		<path d="M18.9,31.5l-0.3-1.2h-1.7l-0.7,1.2h-0.7l2.7-4.5h0.3l1.1,4.5H18.9z M18.2,28.7c0-0.2-0.1-0.3-0.1-0.5c0,0-0.1,0.1-0.1,0.3
			s-0.1,0.2-0.1,0.3l-0.6,1.1h1.3L18.2,28.7z"/>
		<path d="M25,31.5h-0.2l-1.7-2.3c-0.1-0.1-0.2-0.3-0.3-0.5c-0.1-0.2-0.3-0.4-0.5-0.7c0,0.2-0.1,0.4-0.1,0.6s-0.1,0.4-0.1,0.6
			l-0.4,2.3H21l0.8-4.5h0.5l1.5,2.1c0.3,0.4,0.5,0.7,0.8,1.1c0-0.2,0.1-0.4,0.1-0.5s0-0.3,0.1-0.6l0.4-2.1h0.7L25,31.5z"/>
		<path d="M27.6,31.5h-0.7l0.8-4.5h0.7L27.6,31.5z"/>
		<path d="M33.5,31.5h-0.2l-1.7-2.3c-0.1-0.1-0.2-0.3-0.3-0.5c-0.1-0.2-0.3-0.4-0.5-0.7c0,0.2-0.1,0.4-0.1,0.6s-0.1,0.4-0.1,0.6
			l-0.4,2.3h-0.7l0.8-4.5h0.5l1.5,2.1c0.3,0.4,0.5,0.7,0.8,1.1c0-0.2,0.1-0.4,0.1-0.5s0-0.3,0.1-0.6l0.4-2.1h0.7L33.5,31.5z"/>
		<path d="M39.5,27.7c-0.1-0.1-0.3-0.1-0.5-0.2c-0.2,0-0.4-0.1-0.7-0.1c-0.7,0-1.2,0.2-1.6,0.6s-0.6,0.9-0.6,1.4
			c0,0.4,0.2,0.8,0.5,1c0.3,0.3,0.7,0.4,1.1,0.4c0.2,0,0.4,0,0.5-0.1c0.2,0,0.3-0.1,0.4-0.2l0.2-1h-1l0.1-0.5h1.7L39.2,31
			c-0.2,0.2-0.5,0.3-0.8,0.4c-0.3,0.1-0.6,0.1-1,0.1c-0.5,0-1-0.2-1.4-0.5s-0.6-0.9-0.6-1.5c0-0.7,0.3-1.4,0.8-1.9
			c0.5-0.5,1.2-0.8,2.1-0.8c0.3,0,0.5,0,0.7,0.1c0.2,0,0.4,0.1,0.5,0.2L39.5,27.7z"/>
		<path d="M46.3,27.6c-0.2-0.1-0.5-0.1-0.8-0.1c-0.2,0-0.4,0.1-0.6,0.2s-0.2,0.3-0.2,0.5c0,0.2,0,0.3,0.1,0.4
			c0.1,0.1,0.3,0.2,0.5,0.4c0.3,0.1,0.5,0.3,0.7,0.5c0.2,0.2,0.2,0.5,0.2,0.8c0,0.4-0.2,0.7-0.5,1c-0.3,0.3-0.7,0.4-1.3,0.4
			c-0.4,0-0.8-0.1-1-0.2v-0.6c0.2,0.1,0.3,0.1,0.5,0.2c0.2,0,0.4,0.1,0.6,0.1c0.3,0,0.5-0.1,0.7-0.2s0.3-0.3,0.3-0.6
			c0-0.2,0-0.3-0.1-0.4c-0.1-0.1-0.3-0.2-0.6-0.4c-0.3-0.1-0.5-0.3-0.6-0.5S44,28.4,44,28.1c0-0.4,0.2-0.7,0.4-0.9s0.7-0.4,1.1-0.4
			c0.4,0,0.7,0,0.9,0.1L46.3,27.6z"/>
		<path d="M50.7,27.5H49l-0.2,1.4h1.5l-0.1,0.5h-1.5l-0.3,1.4h2l-0.1,0.5h-2.7l0.8-4.5h2.4L50.7,27.5z"/>
		<path d="M54.5,31.5l-1.1-2h-0.7l-0.3,2h-0.7l0.8-4.5h1.4c0.3,0,0.6,0.1,0.8,0.3c0.2,0.2,0.3,0.5,0.3,0.8c0,0.3-0.1,0.6-0.3,0.8
			s-0.4,0.4-0.7,0.5l1.2,2L54.5,31.5z M53.7,27.5h-0.6L52.8,29h0.6c0.3,0,0.5-0.1,0.7-0.3s0.3-0.4,0.3-0.6c0-0.2-0.1-0.3-0.2-0.4
			C54.1,27.6,53.9,27.5,53.7,27.5z"/>
		<path d="M58.1,31.5h-0.2l-1-4.5h0.7l0.5,2.1c0,0.1,0,0.2,0.1,0.5s0.1,0.5,0.1,0.6c0.1-0.1,0.2-0.3,0.3-0.5
			c0.1-0.2,0.2-0.4,0.3-0.6l1.2-2.1h0.7L58.1,31.5z"/>
		<path d="M62,31.5h-0.7l0.8-4.5h0.7L62,31.5z"/>
		<path d="M68,27.6c-0.1-0.1-0.3-0.1-0.4-0.1c-0.2,0-0.4,0-0.5,0c-0.7,0-1.2,0.2-1.6,0.6c-0.4,0.4-0.6,0.9-0.6,1.4
			c0,0.4,0.2,0.8,0.5,1c0.3,0.3,0.7,0.4,1.1,0.4c0.2,0,0.4,0,0.6-0.1s0.4-0.1,0.6-0.2l-0.2,0.7c-0.2,0.1-0.3,0.1-0.5,0.2
			c-0.2,0-0.4,0-0.7,0c-0.5,0-1-0.2-1.4-0.5c-0.4-0.4-0.6-0.9-0.6-1.5c0-0.7,0.3-1.4,0.8-1.9c0.5-0.5,1.2-0.8,2.1-0.8
			c0.2,0,0.4,0,0.6,0c0.2,0,0.3,0.1,0.5,0.1L68,27.6z"/>
		<path d="M72.1,27.5h-1.7l-0.2,1.4h1.4l-0.1,0.5H70l-0.3,1.4h2l-0.1,0.5H69l0.8-4.5h2.4L72.1,27.5z"/>
		<path d="M76,27.6c-0.2-0.1-0.5-0.1-0.8-0.1c-0.2,0-0.4,0.1-0.6,0.2c-0.2,0.1-0.2,0.3-0.2,0.5c0,0.2,0,0.3,0.1,0.4s0.3,0.2,0.5,0.4
			c0.3,0.1,0.5,0.3,0.7,0.5c0.2,0.2,0.2,0.5,0.2,0.8c0,0.4-0.2,0.7-0.4,1c-0.3,0.3-0.7,0.4-1.3,0.4c-0.4,0-0.8-0.1-1-0.2v-0.6
			c0.2,0.1,0.3,0.1,0.5,0.2c0.2,0,0.4,0.1,0.6,0.1c0.3,0,0.5-0.1,0.7-0.2s0.3-0.3,0.3-0.6c0-0.2-0.1-0.3-0.1-0.4
			c-0.1-0.1-0.3-0.2-0.6-0.4c-0.3-0.1-0.5-0.3-0.6-0.5s-0.2-0.4-0.2-0.7c0-0.4,0.2-0.7,0.4-0.9s0.7-0.4,1.1-0.4c0.4,0,0.7,0,0.9,0.1
			L76,27.6z"/>
	</g>
	<g>
		<g>
			<path fill="#FFFFFF" d="M21.6,3.5c0,0.5-0.1,1.1-0.4,1.7s-0.6,1.3-1,1.9s-0.9,1.2-1.5,1.8c-0.6,0.6-1.2,1.1-1.8,1.6
				s-1.2,0.8-1.9,1.1S13.8,12,13.2,12c-0.3,0-0.5,0-0.8-0.1s-0.5-0.1-0.6-0.3c-0.2-0.1-0.3-0.3-0.5-0.5s-0.2-0.5-0.2-0.8
				c0-0.1,0-0.2,0-0.3c0-0.1,0.1-0.2,0.2-0.2s0.2,0.1,0.3,0.2c0.1,0.1,0.2,0.2,0.4,0.2c0.4,0,0.9-0.1,1.5-0.3
				c0.5-0.2,1.1-0.5,1.6-0.8s1-0.7,1.5-1.2s0.9-0.9,1.3-1.3s0.7-0.9,0.9-1.3c0.2-0.4,0.3-0.8,0.3-1c0-0.2-0.1-0.4-0.2-0.5
				s-0.4-0.2-0.7-0.2c-0.7,0-1.4,0.2-2.1,0.5c-0.8,0.4-1.5,0.9-2.3,1.5s-1.6,1.4-2.3,2.2c-0.8,0.8-1.5,1.7-2.2,2.7s-1.3,1.9-2,2.9
				c-0.6,1-1.1,2-1.6,3c-0.4,1-0.8,1.9-1,2.8c-0.3,0.9-0.4,1.7-0.4,2.4c0,0.1,0,0.3,0.1,0.4C4.4,21.9,4.5,22,4.7,22
				c0.5,0,1-0.1,1.6-0.3s1.3-0.5,2-0.7c0.7-0.3,1.4-0.5,2.2-0.7s1.6-0.3,2.4-0.3c0.4,0,0.7,0.1,1,0.4s0.4,0.6,0.4,1.1
				c0,0.4-0.1,0.6-0.4,0.8c-0.2,0.2-0.5,0.3-0.7,0.3c-0.7,0-1.4,0.1-2.1,0.3C10.3,22.9,9.6,23,9,23.2s-1.4,0.4-2.2,0.5
				S5.2,24,4.4,24c-0.4,0-0.8,0-1.1-0.1c-0.4-0.1-0.7-0.2-1-0.4c-0.3-0.2-0.5-0.4-0.7-0.7s-0.3-0.6-0.3-0.9c0-0.6,0.1-1.4,0.4-2.3
				c0.2-0.9,0.6-1.9,1.1-3c0.5-1.1,1-2.2,1.7-3.4c0.6-1.2,1.4-2.3,2.2-3.4s1.6-2.2,2.6-3.2c0.9-1,1.9-1.9,2.9-2.7s2-1.4,3.1-1.8
				s2.1-0.7,3.3-0.7c0.6,0,1,0.1,1.4,0.2s0.7,0.3,1,0.5s0.4,0.4,0.5,0.7C21.5,2.9,21.6,3.2,21.6,3.5z"/>
			<path fill="#FFFFFF" d="M27.4,20.2c0,0.2-0.1,0.4-0.3,0.6s-0.4,0.4-0.7,0.6c-0.3,0.2-0.6,0.4-1,0.5s-0.7,0.2-1.1,0.2
				c-0.3,0-0.6-0.1-0.9-0.2s-0.5-0.4-0.7-0.8c0-0.1-0.1-0.1-0.1-0.1c-0.1,0-0.3,0.1-0.5,0.2c-0.3,0.2-0.6,0.3-1,0.5
				c-0.4,0.2-0.9,0.4-1.5,0.5s-1.3,0.2-2,0.2c-1,0-1.7-0.2-2.1-0.5c-0.4-0.4-0.6-0.8-0.6-1.4c0-0.6,0.2-1.2,0.7-2
				c0.4-0.7,1-1.4,1.8-2c0.7-0.6,1.6-1.1,2.5-1.6s1.9-0.6,2.9-0.6c0.4,0,0.6,0.1,0.8,0.2c0.2,0.1,0.2,0.3,0.2,0.5
				c0,0.2,0,0.4-0.1,0.6s-0.2,0.4-0.4,0.6s-0.3,0.3-0.5,0.4C22.2,16.9,22,17,21.8,17c-0.4,0-0.9,0.1-1.4,0.3c-0.5,0.2-1,0.5-1.4,0.8
				c-0.4,0.3-0.8,0.6-1.1,0.9c-0.3,0.3-0.4,0.6-0.4,0.8c0,0.1,0.1,0.3,0.2,0.4s0.4,0.1,0.7,0.1c0.3,0,0.7-0.1,1.1-0.2
				s0.9-0.4,1.3-0.6c0.5-0.3,1-0.6,1.4-0.9s1-0.7,1.4-1.1c0.1-0.1,0.2-0.2,0.4-0.3c0.1-0.1,0.3-0.1,0.4-0.1c0.1,0,0.2,0,0.3,0.1
				s0.1,0.3,0.1,0.5c0,0.3,0,0.5-0.1,0.8c-0.1,0.3-0.1,0.5-0.1,0.8c0,0.2,0,0.4,0.1,0.5c0.1,0.1,0.2,0.2,0.4,0.2
				c0.2,0,0.5,0,0.7-0.1s0.5-0.1,0.8-0.2c0.2,0,0.4,0.1,0.5,0.2C27.4,20,27.4,20.1,27.4,20.2z"/>
			<path fill="#FFFFFF" d="M35.6,15.9c0,0.2,0,0.4-0.1,0.5c-0.1,0.1-0.3,0.2-0.6,0.2h-1.3c-0.8,0-1.4,0-1.9,0.1
				c-0.5,0-0.9,0.1-1.3,0.2c0,0.2-0.1,0.5-0.1,0.7s0,0.5,0,0.8c0,0.6,0.1,1.1,0.3,1.4c0.2,0.4,0.5,0.6,0.9,0.6c0.3,0,0.5,0,0.7-0.1
				c0.2-0.1,0.4-0.2,0.5-0.3s0.3-0.2,0.5-0.3s0.3-0.1,0.5-0.1c0.2,0,0.3,0.1,0.4,0.2s0.2,0.3,0.2,0.5c0,0.3-0.1,0.6-0.3,0.9
				s-0.4,0.5-0.7,0.7s-0.6,0.4-1,0.5c-0.4,0.1-0.8,0.2-1.2,0.2c-0.4,0-0.8-0.1-1.2-0.2c-0.4-0.1-0.8-0.4-1.1-0.7s-0.6-0.8-0.8-1.3
				s-0.3-1.2-0.3-2c0-0.1,0-0.3,0-0.4s0-0.3,0-0.4c0,0-0.1,0-0.2,0c-0.1,0-0.3,0-0.4,0s-0.3,0-0.5,0c-0.3,0-0.5,0-0.6-0.2
				c-0.1-0.1-0.2-0.3-0.2-0.5c0-0.3,0.1-0.6,0.2-0.9s0.3-0.5,0.6-0.6c0.1,0,0.3-0.1,0.5-0.1s0.5-0.1,0.8-0.2
				c0.2-0.9,0.5-1.8,0.8-2.7c0.3-0.9,0.6-1.6,1-2.3C30.3,9.5,30.6,9,31,8.6C31.3,8.2,31.6,8,31.9,8c0.3,0,0.6,0.1,0.8,0.3
				c0.2,0.2,0.2,0.5,0.2,0.8c0,0.4-0.1,0.7-0.2,1.1c-0.1,0.4-0.3,0.8-0.5,1.3c-0.2,0.5-0.4,0.9-0.6,1.4c-0.2,0.5-0.4,1-0.6,1.6
				c0.4,0,0.8-0.1,1.2-0.1c0.4,0,0.7,0,1.1,0c0.3,0,0.6,0,0.9,0.1c0.3,0,0.5,0.1,0.8,0.2c0.2,0.1,0.4,0.2,0.6,0.4
				C35.6,15.4,35.6,15.6,35.6,15.9z"/>
			<path fill="#FFFFFF" d="M40.6,20.2c0,0.3-0.1,0.6-0.3,0.9c-0.2,0.3-0.5,0.5-0.8,0.8s-0.7,0.4-1.1,0.5s-0.8,0.2-1.2,0.2
				c-0.3,0-0.6,0-0.9-0.1c-0.3-0.1-0.6-0.2-0.8-0.4s-0.4-0.4-0.5-0.8s-0.2-0.7-0.2-1.1c0-0.5,0.1-1,0.2-1.5s0.2-1,0.3-1.4
				c0.1-0.4,0.2-0.8,0.3-1s0.2-0.4,0.2-0.4c0.1-0.1,0.3-0.1,0.5-0.2c0.2-0.1,0.4-0.1,0.6-0.2c0.2-0.1,0.4-0.1,0.6-0.1
				s0.3-0.1,0.4-0.1c0.2,0,0.3,0,0.3,0.1s0.1,0.2,0.1,0.3c0,0.1,0,0.3-0.1,0.5s-0.2,0.5-0.3,0.8c-0.1,0.3-0.2,0.6-0.3,1
				s-0.1,0.6-0.1,0.8c0,0.4,0.1,0.7,0.3,1s0.5,0.4,0.9,0.4c0.2,0,0.4,0,0.5-0.1s0.2-0.1,0.3-0.1s0.1-0.1,0.2-0.1s0.2-0.1,0.3-0.1
				c0.1,0,0.3,0,0.4,0.1S40.5,20,40.6,20.2z M39.3,10.7c0,0.1,0,0.3-0.1,0.6c-0.1,0.3-0.2,0.5-0.3,0.8c-0.2,0.3-0.4,0.5-0.7,0.7
				s-0.7,0.3-1.3,0.4c-0.1,0-0.3,0-0.4-0.1c-0.1,0-0.2-0.1-0.3-0.1s-0.1-0.2-0.1-0.3c0-0.1,0-0.2,0.1-0.4c0-0.2,0.1-0.4,0.2-0.6
				c0.1-0.2,0.1-0.4,0.2-0.6s0.2-0.4,0.2-0.5c0.1-0.2,0.3-0.3,0.5-0.4c0.2-0.1,0.4-0.1,0.7-0.1c0.1,0,0.3,0,0.4,0s0.3,0,0.4,0.1
				s0.3,0.1,0.3,0.2C39.3,10.5,39.3,10.6,39.3,10.7z"/>
			<path fill="#FFFFFF" d="M53.2,19.7c0,0.3-0.2,0.5-0.5,0.8s-0.7,0.6-1.2,0.8c-0.5,0.3-1,0.5-1.5,0.6s-1.1,0.3-1.6,0.3
				c-0.3,0-0.6,0-0.8-0.1c-0.2-0.1-0.3-0.3-0.4-0.4c-0.1-0.2-0.2-0.4-0.2-0.7c0-0.3,0-0.6,0-1c0-0.1,0-0.3-0.1-0.4s-0.2-0.1-0.4-0.1
				c-0.1,0-0.3,0.1-0.7,0.4s-0.7,0.5-1,0.8c-0.4,0.3-0.7,0.6-1,0.9c-0.3,0.3-0.5,0.5-0.6,0.5c-0.1,0.1-0.2,0.1-0.3,0.2
				s-0.3,0.1-0.5,0.1c-0.2,0-0.4-0.1-0.7-0.2s-0.3-0.3-0.3-0.5c0-0.2,0-0.4,0.2-0.7c0.1-0.3,0.2-0.6,0.3-0.9
				c0.1-0.3,0.2-0.6,0.3-0.9c0.1-0.3,0.2-0.6,0.2-0.8s-0.1-0.4-0.2-0.6c-0.1-0.1-0.3-0.2-0.7-0.2c-0.2,0-0.5,0.1-0.7,0.2
				s-0.4,0.2-0.6,0.2c-0.2,0-0.3-0.1-0.4-0.2s-0.1-0.3-0.1-0.5c0-0.3,0.2-0.6,0.4-0.9c0.2-0.2,0.5-0.4,0.9-0.6
				c0.4-0.2,1-0.3,1.7-0.3c0.3,0,0.6,0,0.8,0.1s0.4,0.1,0.5,0.3s0.2,0.2,0.3,0.4c0,0.1,0.1,0.3,0.1,0.4c0,0.2,0,0.3-0.1,0.5
				c0,0.2-0.1,0.4-0.2,0.5s-0.1,0.3-0.2,0.4c0,0.1-0.1,0.2-0.1,0.3c0,0.1,0.1,0.2,0.2,0.2c0.1,0,0.3-0.1,0.6-0.3s0.7-0.4,1.1-0.7
				s0.9-0.5,1.3-0.7s0.9-0.3,1.3-0.3c0.2,0,0.4,0,0.5,0c0.2,0,0.3,0.1,0.5,0.2c0.1,0.1,0.2,0.2,0.3,0.3c0.1,0.1,0.1,0.3,0.1,0.5
				c0,0.2,0,0.4-0.1,0.5s-0.1,0.3-0.1,0.5c0,0.1-0.1,0.3-0.1,0.4c0,0.1-0.1,0.3-0.1,0.5c0,0.1,0,0.3,0.1,0.4
				c0.1,0.2,0.2,0.3,0.5,0.3c0.2,0,0.5,0,0.7-0.1s0.5-0.2,0.8-0.3s0.5-0.2,0.7-0.3s0.4-0.1,0.5-0.1c0.1,0,0.3,0,0.3,0.1
				C53.1,19.4,53.2,19.5,53.2,19.7z"/>
			<path fill="#FFFFFF" d="M77.2,7.5c0,0.8-0.2,1.6-0.7,2.6c-0.5,0.9-1.2,1.8-2,2.7c-0.9,0.9-1.9,1.7-3.2,2.4
				c-1.2,0.7-2.6,1.2-4.1,1.6c-0.3,0.1-0.5,0.1-0.7,0.1s-0.2,0-0.2,0.1c0,0.1,0.1,0.3,0.2,0.5s0.3,0.4,0.5,0.7
				c0.2,0.3,0.4,0.5,0.7,0.8c0.3,0.3,0.5,0.5,0.8,0.7c0.3,0.2,0.5,0.4,0.7,0.5s0.4,0.2,0.6,0.2c0.2,0,0.4,0,0.5-0.1s0.2-0.2,0.3-0.3
				s0.1-0.2,0.2-0.3c0-0.1,0.1-0.1,0.2-0.1c0.1,0,0.2,0,0.3,0.2c0.1,0.1,0.2,0.2,0.2,0.4s0.1,0.3,0.2,0.4s0.1,0.3,0.1,0.4
				c0,0.4-0.1,0.8-0.3,1c-0.2,0.3-0.5,0.5-0.8,0.6c-0.3,0.1-0.6,0.2-1,0.3s-0.6,0.1-0.9,0.1c-0.5,0-1-0.1-1.5-0.4
				c-0.5-0.3-0.9-0.6-1.3-1c-0.4-0.4-0.8-0.8-1.1-1.3c-0.3-0.5-0.6-0.9-0.8-1.3c-0.2-0.4-0.4-0.8-0.5-1.1s-0.2-0.5-0.2-0.6
				c0-0.3,0.1-0.6,0.3-0.9s0.5-0.5,0.8-0.6c1-0.1,1.9-0.4,2.8-0.7c0.9-0.3,1.7-0.7,2.4-1.1c0.7-0.4,1.4-0.9,2-1.4s1.1-1,1.5-1.5
				c0.4-0.5,0.7-1,1-1.4c0.2-0.5,0.3-0.9,0.3-1.2c0-0.3-0.1-0.6-0.3-0.7c-0.2-0.2-0.5-0.3-0.9-0.3c-1,0-2,0.2-3,0.7
				c-0.9,0.5-1.8,1.1-2.7,1.9c-0.8,0.8-1.6,1.7-2.4,2.7c-0.7,1-1.4,2-1.9,3c-0.6,1-1,2-1.4,3S61,20.3,60.8,21
				c-0.1,0.2-0.2,0.3-0.4,0.5c-0.2,0.1-0.4,0.3-0.6,0.4s-0.5,0.2-0.7,0.2s-0.4,0.1-0.6,0.1c-0.2,0-0.3,0-0.5-0.1
				c-0.2-0.1-0.3-0.2-0.3-0.3c0-0.1,0-0.2,0.1-0.3s0.1-0.2,0.2-0.3c0.3-1.1,0.7-2.1,1-3.1c0.3-1,0.6-2,0.8-3s0.4-2,0.6-3
				s0.2-2,0.2-3c0-0.1,0-0.3,0-0.3c0-0.1-0.1-0.1-0.1-0.2c0-0.1-0.1-0.1-0.1-0.1c0,0,0-0.1,0-0.1c0-0.1,0.1-0.3,0.2-0.4
				c0.2-0.1,0.3-0.2,0.6-0.3s0.4-0.2,0.7-0.2s0.5-0.1,0.6-0.1c0.2,0,0.4,0.1,0.6,0.2c0.1,0.1,0.3,0.2,0.3,0.4
				c0.1,0.2,0.1,0.3,0.1,0.5c0,0.2,0,0.3,0,0.5c0,0.1,0,0.3-0.1,0.7s-0.1,0.7-0.2,1c-0.1,0.4-0.2,0.7-0.2,1s-0.1,0.4-0.2,0.5
				c0.8-1.3,1.7-2.4,2.7-3.3s2-1.7,2.9-2.3c1-0.6,1.9-1.1,2.8-1.4c0.9-0.3,1.6-0.4,2.1-0.4c0.7,0,1.3,0.1,1.8,0.2
				c0.5,0.2,0.9,0.3,1.2,0.6s0.6,0.6,0.7,1C77.2,6.7,77.2,7.1,77.2,7.5z"/>
			<path fill="#FFFFFF" d="M83.3,16.7c0,0.3-0.1,0.5-0.2,0.8s-0.3,0.4-0.5,0.6c-0.2,0.2-0.4,0.3-0.6,0.4c-0.2,0.1-0.4,0.2-0.6,0.2
				c0,0.5-0.3,1.1-0.6,1.6s-0.8,0.9-1.4,1.3s-1.2,0.6-1.9,0.9c-0.7,0.2-1.4,0.3-2.1,0.3c-1.2,0-2.1-0.2-2.6-0.7s-0.8-1-0.8-1.7
				c0-0.6,0.2-1.3,0.6-2c0.4-0.7,1-1.4,1.7-2c0.7-0.6,1.6-1.1,2.5-1.5c1-0.4,2-0.6,3.1-0.6c0.1,0,0.2,0,0.3,0s0.2,0,0.3,0
				c0.2,0,0.3,0.1,0.3,0.2c0.1,0.1,0.1,0.3,0.1,0.4c0,0.1,0,0.3-0.1,0.5s-0.1,0.3-0.2,0.5c-0.1,0.1-0.1,0.3-0.2,0.4
				c-0.1,0.1-0.2,0.2-0.3,0.2c-0.7,0.1-1.3,0.2-2,0.4s-1.3,0.4-1.8,0.7c-0.6,0.3-1,0.6-1.4,1s-0.5,0.8-0.5,1.3
				c0,0.2,0.1,0.4,0.2,0.6c0.1,0.2,0.4,0.3,0.7,0.3c0.7,0,1.4-0.1,1.9-0.4s1-0.6,1.3-1s0.6-0.8,0.8-1.3s0.3-0.8,0.3-1h0
				c0.4,0,0.7,0,0.9,0s0.4,0,0.6,0c0.2,0,0.3,0,0.4,0s0.2,0,0.4-0.1c0.1,0,0.3-0.1,0.5-0.1c0.2-0.1,0.4-0.1,0.8-0.2
				C83.2,16.4,83.3,16.5,83.3,16.7z"/>
			<path fill="#FFFFFF" d="M93.6,22.4c0,0.1,0,0.2,0,0.4s-0.1,0.3-0.1,0.4c0,0.2-0.1,0.4-0.2,0.5c-0.1,0.1-0.2,0.2-0.4,0.3
				c-0.2,0.1-0.3,0.1-0.5,0.2s-0.4,0.1-0.6,0.1c-0.3,0.1-0.5,0.1-0.8,0.2s-0.5,0.1-0.8,0.2c-0.6,1.4-1.2,2.6-1.9,3.6
				c-0.7,1-1.5,1.8-2.3,2.5c-0.8,0.7-1.6,1.1-2.3,1.5c-0.8,0.3-1.5,0.5-2.1,0.5c-0.8,0-1.4-0.2-1.9-0.7s-0.7-1.1-0.7-1.9
				c0-0.8,0.3-1.6,0.8-2.3c0.6-0.7,1.3-1.4,2.2-2c0.9-0.6,1.9-1.2,2.9-1.6c1.1-0.5,2.2-0.9,3.2-1.2c0-0.2,0.1-0.5,0.1-0.7
				c0-0.2,0-0.5,0-0.7c-0.4,0.2-0.8,0.3-1.3,0.5c-0.4,0.1-0.8,0.2-1.3,0.3c-0.5,0.1-0.9,0.1-1.4,0.1c-0.3,0-0.6,0-0.9-0.1
				c-0.3-0.1-0.6-0.2-0.8-0.4c-0.2-0.2-0.4-0.4-0.5-0.7c-0.1-0.3-0.2-0.6-0.2-1.1c0-0.5,0.2-1.1,0.6-1.7c0.4-0.6,1-1.2,1.7-1.7
				c0.7-0.5,1.6-1,2.5-1.3c1-0.4,2-0.5,3.1-0.5c0.3,0.1,0.4,0.2,0.5,0.3c0.1,0.1,0.1,0.2,0.1,0.2c0,0.1,0,0.3-0.1,0.4
				c0,0.1-0.1,0.3-0.1,0.4c-0.1,0.1-0.1,0.3-0.2,0.4c-0.1,0.1-0.1,0.2-0.2,0.2c-0.1,0.1-0.2,0.3-0.4,0.4s-0.3,0.1-0.5,0.1
				c-0.3,0-0.6,0.1-1.1,0.3c-0.5,0.2-1,0.4-1.5,0.6s-0.9,0.5-1.3,0.8c-0.4,0.3-0.6,0.6-0.6,0.9c0,0.1,0.1,0.2,0.2,0.3
				s0.3,0.1,0.5,0.1c0.3,0,0.6,0,1-0.1s0.8-0.2,1.2-0.4c0.4-0.2,0.7-0.4,1.1-0.6s0.6-0.5,0.7-0.8c0,0,0.1-0.1,0.1-0.1
				c0,0,0.1-0.1,0.1-0.1c0.1-0.1,0.2-0.1,0.3-0.2s0.3-0.2,0.6-0.3c0.2-0.1,0.4-0.1,0.5-0.1c0.1,0,0.3,0,0.4,0c0.2,0,0.4,0.1,0.5,0.2
				c0.1,0.1,0.2,0.3,0.2,0.4v0.1c-0.1,0.7-0.2,1.5-0.3,2.1c-0.1,0.7-0.3,1.3-0.4,1.9c0.5-0.1,0.9-0.2,1.3-0.3
				c0.4-0.1,0.7-0.1,0.9-0.1C93.4,21.9,93.6,22.1,93.6,22.4z M87.5,25.5c-0.8,0.3-1.7,0.6-2.4,0.9s-1.5,0.7-2.1,1s-1.1,0.7-1.4,1.1
				s-0.5,0.8-0.5,1.2c0,0.4,0.1,0.6,0.3,0.8c0.2,0.2,0.5,0.3,0.8,0.3c0.4,0,0.8-0.1,1.3-0.3s1-0.5,1.5-1c0.5-0.4,1-1,1.4-1.6
				S87.2,26.4,87.5,25.5z"/>
			<path fill="#FFFFFF" d="M105.1,20.3c0,0.2-0.1,0.4-0.2,0.6s-0.4,0.5-0.6,0.7c-0.3,0.2-0.6,0.4-1,0.6c-0.4,0.1-0.8,0.2-1.2,0.2
				c-0.5,0-0.8-0.1-1.1-0.2s-0.4-0.2-0.6-0.4c-0.1-0.1-0.2-0.3-0.2-0.4c0-0.1,0-0.2,0-0.3c0-0.4,0-0.5,0-0.6c0-0.1,0-0.1,0-0.1
				c0,0-0.2,0.1-0.5,0.3s-0.6,0.4-1.1,0.6c-0.4,0.2-0.9,0.4-1.4,0.6s-1.1,0.3-1.7,0.3c-0.4,0-0.8,0-1-0.1s-0.4-0.2-0.6-0.4
				s-0.3-0.4-0.3-0.6c-0.1-0.2-0.1-0.5-0.1-0.8c0-0.2,0-0.4,0.1-0.7c0.1-0.3,0.2-0.6,0.2-0.9s0.2-0.5,0.2-0.8
				c0.1-0.2,0.1-0.4,0.1-0.4c0-0.1-0.1-0.2-0.2-0.3c-0.1,0-0.3-0.1-0.4-0.1c-0.2,0-0.3,0-0.5,0s-0.4,0.1-0.5,0.1
				c-0.2,0-0.3,0.1-0.4,0.1c-0.1,0-0.2,0-0.2,0c-0.2,0-0.3,0-0.3-0.1s-0.1-0.1-0.2-0.2c0-0.1-0.1-0.1-0.1-0.3c0-0.3,0.1-0.6,0.4-0.9
				c0.3-0.3,0.6-0.5,0.9-0.7s0.7-0.4,1.1-0.5s0.7-0.2,0.9-0.2c0.2,0,0.3,0,0.5,0.1c0.2,0,0.3,0.1,0.5,0.2c0.2,0.1,0.3,0.2,0.4,0.4
				s0.2,0.3,0.2,0.6c0,0.5-0.1,1-0.2,1.4c-0.1,0.4-0.2,0.8-0.2,1.1c0,0.2,0.1,0.4,0.2,0.5c0.1,0.1,0.3,0.2,0.7,0.2
				c0.5,0,1-0.1,1.4-0.2s0.8-0.4,1.2-0.6s0.7-0.5,1.1-0.8s0.6-0.5,0.9-0.8c0.3-0.2,0.5-0.4,0.8-0.6c0.2-0.2,0.4-0.2,0.6-0.2
				c0.2,0,0.4,0.1,0.5,0.2c0.1,0.1,0.2,0.3,0.2,0.4s0,0.4-0.1,0.5s-0.2,0.4-0.3,0.6s-0.2,0.5-0.3,0.7c-0.1,0.3-0.1,0.5-0.1,0.9
				c0,0.6,0.3,0.8,0.9,0.8c0.3,0,0.5,0,0.7-0.1c0.2-0.1,0.3-0.1,0.5-0.1C104.9,19.9,105.1,20,105.1,20.3z"/>
			<path fill="#FFFFFF" d="M113.8,16c0,0.4-0.2,0.8-0.5,1.2s-0.7,0.9-1.3,1.3s-1.1,0.8-1.8,1s-1.4,0.5-2.2,0.6
				c0,0.1,0.1,0.2,0.2,0.3c0.1,0.1,0.3,0.1,0.6,0.2c0.3,0,0.6,0.1,1.1,0.1c0.4,0,0.7,0,1-0.1s0.5-0.2,0.7-0.3
				c0.2-0.1,0.4-0.2,0.6-0.3c0.2-0.1,0.3-0.1,0.6-0.1c0.4,0,0.7,0.2,0.7,0.5s-0.1,0.7-0.4,1s-0.7,0.6-1.1,0.8
				c-0.5,0.2-1,0.4-1.5,0.5c-0.6,0.1-1.2,0.2-1.7,0.2c-0.7,0-1.3-0.1-1.8-0.2s-0.9-0.4-1.2-0.6s-0.6-0.5-0.7-0.9
				c-0.2-0.3-0.2-0.7-0.2-1.1c0-0.6,0.2-1.2,0.5-1.8c0.3-0.6,0.8-1.2,1.4-1.8c0.6-0.5,1.3-1,2.1-1.3s1.7-0.5,2.6-0.5
				c0.9,0,1.6,0.1,2,0.4C113.6,15.2,113.8,15.6,113.8,16z M110.8,16.5c0-0.1-0.1-0.2-0.2-0.3s-0.3-0.1-0.4-0.1
				c-0.2,0-0.5,0.1-0.8,0.2s-0.6,0.3-0.8,0.5c-0.3,0.2-0.5,0.4-0.7,0.7c-0.2,0.3-0.3,0.5-0.3,0.8c0,0.1,0.1,0.2,0.2,0.2
				c0.3,0,0.6-0.1,0.9-0.2s0.7-0.3,1-0.5c0.3-0.2,0.6-0.4,0.8-0.6C110.7,16.9,110.8,16.7,110.8,16.5z"/>
		</g>
		<g>
			<path fill="#FFFFFF" d="M6.1,27.1C6,27.1,5.8,27,5.7,27c-0.2,0-0.3,0-0.5,0c-0.7,0-1.2,0.2-1.6,0.6S2.9,28.4,2.9,29
				c0,0.4,0.2,0.8,0.5,1c0.3,0.3,0.7,0.4,1.1,0.4c0.2,0,0.4,0,0.6-0.1s0.4-0.1,0.6-0.2l-0.1,0.7C5.3,30.9,5.2,30.9,5,31
				s-0.4,0-0.7,0c-0.5,0-1-0.2-1.4-0.5S2.3,29.6,2.3,29c0-0.7,0.3-1.4,0.8-1.9c0.5-0.5,1.2-0.8,2.1-0.8c0.2,0,0.4,0,0.6,0
				c0.2,0,0.3,0.1,0.5,0.1L6.1,27.1z"/>
			<path fill="#FFFFFF" d="M9.8,31H7.2l0.8-4.5h0.7l-0.7,3.9h2L9.8,31z"/>
			<path fill="#FFFFFF" d="M14.3,27h-1.7l-0.2,1.4h1.4L13.6,29h-1.4l-0.3,1.4h2L13.8,31h-2.6l0.8-4.5h2.4L14.3,27z"/>
			<path fill="#FFFFFF" d="M18.4,31l-0.3-1.2h-1.7L15.7,31H15l2.7-4.5h0.3L19,31H18.4z M17.7,28.2c0-0.2-0.1-0.3-0.1-0.5
				c0,0-0.1,0.1-0.1,0.3s-0.1,0.2-0.1,0.3l-0.6,1.1H18L17.7,28.2z"/>
			<path fill="#FFFFFF" d="M24.5,31h-0.2l-1.7-2.3c-0.1-0.1-0.2-0.3-0.3-0.5c-0.1-0.2-0.3-0.4-0.5-0.7c0,0.2-0.1,0.4-0.1,0.6
				s-0.1,0.4-0.1,0.6l-0.4,2.3h-0.7l0.8-4.5h0.5l1.5,2.1c0.3,0.4,0.5,0.7,0.8,1.1c0-0.2,0.1-0.4,0.1-0.5s0-0.3,0.1-0.6l0.4-2.1h0.7
				L24.5,31z"/>
			<path fill="#FFFFFF" d="M27.1,31h-0.7l0.8-4.5h0.7L27.1,31z"/>
			<path fill="#FFFFFF" d="M33,31h-0.2L31,28.7c-0.1-0.1-0.2-0.3-0.3-0.5c-0.1-0.2-0.3-0.4-0.5-0.7c0,0.2-0.1,0.4-0.1,0.6
				s-0.1,0.4-0.1,0.6l-0.4,2.3H29l0.8-4.5h0.5l1.5,2.1c0.3,0.4,0.5,0.7,0.7,1.1c0-0.2,0.1-0.4,0.1-0.5s0-0.3,0.1-0.6l0.4-2.1h0.7
				L33,31z"/>
			<path fill="#FFFFFF" d="M39,27.2c-0.1-0.1-0.3-0.1-0.5-0.2C38.3,27,38,27,37.8,27c-0.7,0-1.2,0.2-1.6,0.6s-0.6,0.9-0.6,1.4
				c0,0.4,0.2,0.8,0.5,1c0.3,0.3,0.7,0.4,1.1,0.4c0.2,0,0.4,0,0.5-0.1c0.2,0,0.3-0.1,0.4-0.2l0.2-1h-1l0.1-0.5H39l-0.3,1.8
				c-0.2,0.2-0.5,0.3-0.8,0.4C37.7,31,37.4,31,37,31c-0.5,0-1-0.2-1.4-0.5s-0.6-0.9-0.6-1.5c0-0.7,0.3-1.4,0.8-1.9
				c0.5-0.5,1.2-0.8,2.1-0.8c0.3,0,0.5,0,0.7,0.1c0.2,0,0.4,0.1,0.5,0.2L39,27.2z"/>
			<path fill="#FFFFFF" d="M45.8,27.1C45.5,27,45.3,27,44.9,27c-0.2,0-0.4,0.1-0.6,0.2s-0.2,0.3-0.2,0.5c0,0.2,0,0.3,0.1,0.4
				c0.1,0.1,0.3,0.2,0.5,0.4c0.3,0.1,0.5,0.3,0.7,0.5c0.2,0.2,0.2,0.5,0.2,0.8c0,0.4-0.2,0.7-0.5,1c-0.3,0.3-0.7,0.4-1.3,0.4
				c-0.4,0-0.8-0.1-1-0.2v-0.6c0.2,0.1,0.3,0.1,0.5,0.2c0.2,0,0.4,0.1,0.6,0.1c0.3,0,0.5-0.1,0.7-0.2s0.3-0.3,0.3-0.6
				c0-0.2,0-0.3-0.1-0.4c-0.1-0.1-0.3-0.2-0.6-0.4c-0.3-0.1-0.5-0.3-0.6-0.5s-0.2-0.4-0.2-0.7c0-0.4,0.2-0.7,0.4-0.9
				s0.7-0.4,1.1-0.4c0.4,0,0.7,0,0.9,0.1L45.8,27.1z"/>
			<path fill="#FFFFFF" d="M50.2,27h-1.7l-0.2,1.4h1.5L49.6,29h-1.5l-0.3,1.4h2L49.7,31h-2.7l0.8-4.5h2.4L50.2,27z"/>
			<path fill="#FFFFFF" d="M54,31l-1.1-2h-0.7l-0.3,2h-0.7l0.8-4.5h1.4c0.3,0,0.6,0.1,0.8,0.3c0.2,0.2,0.3,0.5,0.3,0.8
				c0,0.3-0.1,0.6-0.3,0.8s-0.4,0.4-0.7,0.5l1.2,2L54,31z M53.2,27h-0.6l-0.3,1.4H53c0.3,0,0.5-0.1,0.7-0.3s0.3-0.4,0.3-0.6
				c0-0.2-0.1-0.3-0.2-0.4C53.6,27.1,53.4,27,53.2,27z"/>
			<path fill="#FFFFFF" d="M57.6,31h-0.2l-1-4.5H57l0.5,2.1c0,0.1,0,0.2,0.1,0.5s0.1,0.5,0.1,0.6c0.1-0.1,0.2-0.3,0.3-0.5
				c0.1-0.2,0.2-0.4,0.3-0.6l1.2-2.1h0.7L57.6,31z"/>
			<path fill="#FFFFFF" d="M61.5,31h-0.7l0.8-4.5h0.7L61.5,31z"/>
			<path fill="#FFFFFF" d="M67.5,27.1C67.4,27.1,67.2,27,67,27c-0.2,0-0.4,0-0.5,0c-0.7,0-1.2,0.2-1.6,0.6c-0.4,0.4-0.6,0.9-0.6,1.4
				c0,0.4,0.2,0.8,0.5,1c0.3,0.3,0.7,0.4,1.1,0.4c0.2,0,0.4,0,0.6-0.1s0.4-0.1,0.6-0.2l-0.2,0.7c-0.2,0.1-0.3,0.1-0.5,0.2
				c-0.2,0-0.4,0-0.7,0c-0.5,0-1-0.2-1.4-0.5c-0.4-0.4-0.6-0.9-0.6-1.5c0-0.7,0.3-1.4,0.8-1.9c0.5-0.5,1.2-0.8,2.1-0.8
				c0.2,0,0.4,0,0.6,0c0.2,0,0.3,0.1,0.5,0.1L67.5,27.1z"/>
			<path fill="#FFFFFF" d="M71.6,27h-1.7l-0.2,1.4h1.4L71,29h-1.4l-0.3,1.4h2L71.2,31h-2.7l0.8-4.5h2.4L71.6,27z"/>
			<path fill="#FFFFFF" d="M75.5,27.1C75.3,27,75,27,74.7,27c-0.2,0-0.4,0.1-0.6,0.2c-0.2,0.1-0.2,0.3-0.2,0.5c0,0.2,0,0.3,0.1,0.4
				s0.3,0.2,0.5,0.4c0.3,0.1,0.5,0.3,0.7,0.5c0.2,0.2,0.2,0.5,0.2,0.8c0,0.4-0.2,0.7-0.4,1c-0.3,0.3-0.7,0.4-1.3,0.4
				c-0.4,0-0.8-0.1-1-0.2v-0.6c0.2,0.1,0.3,0.1,0.5,0.2c0.2,0,0.4,0.1,0.6,0.1c0.3,0,0.5-0.1,0.7-0.2s0.3-0.3,0.3-0.6
				c0-0.2-0.1-0.3-0.1-0.4c-0.1-0.1-0.3-0.2-0.6-0.4c-0.3-0.1-0.5-0.3-0.6-0.5s-0.2-0.4-0.2-0.7c0-0.4,0.2-0.7,0.4-0.9
				s0.7-0.4,1.1-0.4c0.4,0,0.7,0,0.9,0.1L75.5,27.1z"/>
		</g>
	</g>
</g>
</svg>
