<?xml version="1.0" encoding="utf-8"?>
<!-- Generator: Adobe Illustrator 23.0.0, SVG Export Plug-In . SVG Version: 6.00 Build 0)  -->
<svg version="1.2" baseProfile="tiny" id="Layer_1" xmlns="http://www.w3.org/2000/svg" xmlns:xlink="http://www.w3.org/1999/xlink"
	 x="0px" y="0px" viewBox="0 0 115 34" xml:space="preserve">
<g>
	<g>
		<g>
			<path fill="#FFFFFF" d="M21.56,3.53c0,0.52-0.13,1.09-0.39,1.71s-0.6,1.25-1.03,1.88c-0.43,0.63-0.93,1.24-1.49,1.83
				c-0.57,0.59-1.16,1.11-1.78,1.57c-0.62,0.46-1.24,0.82-1.86,1.09c-0.62,0.27-1.21,0.41-1.76,0.41c-0.25,0-0.5-0.02-0.75-0.06
				c-0.25-0.04-0.46-0.13-0.65-0.25c-0.19-0.13-0.34-0.29-0.46-0.5c-0.12-0.21-0.18-0.48-0.18-0.82c0-0.07,0.01-0.18,0.02-0.34
				c0.01-0.15,0.07-0.23,0.17-0.23c0.1,0,0.19,0.06,0.26,0.18c0.08,0.12,0.21,0.18,0.41,0.18c0.45,0,0.94-0.11,1.46-0.33
				c0.53-0.22,1.05-0.5,1.57-0.84c0.52-0.34,1.02-0.73,1.49-1.17s0.9-0.87,1.27-1.31c0.37-0.44,0.67-0.87,0.88-1.27
				c0.22-0.41,0.33-0.75,0.33-1.03c0-0.22-0.07-0.4-0.22-0.53c-0.15-0.13-0.39-0.19-0.73-0.19c-0.67,0-1.39,0.18-2.14,0.55
				c-0.76,0.36-1.52,0.86-2.3,1.48s-1.55,1.36-2.32,2.2c-0.77,0.84-1.51,1.73-2.21,2.68c-0.7,0.95-1.35,1.92-1.96,2.93
				c-0.6,1.01-1.12,2-1.57,2.96c-0.44,0.97-0.79,1.89-1.04,2.77c-0.25,0.88-0.38,1.67-0.38,2.35c0,0.14,0.03,0.26,0.09,0.37
				c0.06,0.1,0.19,0.16,0.39,0.16c0.48,0,1.02-0.11,1.62-0.33s1.25-0.46,1.96-0.71c0.7-0.26,1.44-0.5,2.22-0.71s1.57-0.33,2.39-0.33
				c0.39,0,0.71,0.14,0.96,0.41c0.25,0.27,0.37,0.63,0.37,1.08c0,0.38-0.12,0.65-0.35,0.82c-0.23,0.17-0.47,0.25-0.73,0.25
				c-0.71,0-1.42,0.08-2.1,0.25c-0.69,0.17-1.38,0.35-2.07,0.55s-1.42,0.38-2.17,0.55c-0.75,0.17-1.55,0.25-2.39,0.25
				c-0.38,0-0.75-0.05-1.1-0.15c-0.36-0.1-0.67-0.24-0.95-0.43c-0.27-0.19-0.49-0.42-0.66-0.69c-0.17-0.27-0.25-0.58-0.25-0.94
				c0-0.63,0.12-1.41,0.37-2.33c0.25-0.93,0.6-1.93,1.05-3.01c0.46-1.08,1.01-2.21,1.65-3.38c0.64-1.18,1.36-2.33,2.15-3.45
				c0.79-1.12,1.65-2.19,2.56-3.21c0.92-1.02,1.88-1.91,2.88-2.67c1-0.76,2.04-1.37,3.11-1.82c1.07-0.45,2.15-0.67,3.25-0.67
				c0.56,0,1.04,0.06,1.43,0.17c0.39,0.11,0.71,0.27,0.96,0.46s0.42,0.43,0.54,0.7C21.5,2.91,21.56,3.21,21.56,3.53z"/>
			<path fill="#FFFFFF" d="M27.4,20.22c0,0.17-0.09,0.36-0.28,0.58c-0.19,0.22-0.43,0.42-0.74,0.62c-0.3,0.2-0.64,0.36-1.01,0.49
				c-0.37,0.13-0.73,0.2-1.08,0.2c-0.34,0-0.65-0.08-0.93-0.23c-0.28-0.15-0.5-0.41-0.67-0.78C22.67,21.04,22.62,21,22.57,21
				c-0.08,0-0.26,0.08-0.51,0.24c-0.26,0.16-0.6,0.34-1.03,0.55c-0.43,0.2-0.94,0.39-1.53,0.55s-1.26,0.24-2.01,0.24
				c-1,0-1.72-0.18-2.15-0.54c-0.43-0.36-0.65-0.81-0.65-1.36c0-0.59,0.22-1.24,0.67-1.97c0.44-0.72,1.03-1.39,1.75-2.02
				c0.73-0.62,1.56-1.15,2.5-1.57s1.89-0.63,2.86-0.63c0.38,0,0.65,0.07,0.81,0.22c0.16,0.15,0.24,0.33,0.24,0.54
				c0,0.18-0.05,0.38-0.15,0.58c-0.1,0.2-0.23,0.39-0.39,0.56s-0.34,0.31-0.55,0.42c-0.2,0.11-0.4,0.17-0.6,0.17
				c-0.42,0-0.88,0.1-1.38,0.31c-0.5,0.2-0.96,0.45-1.4,0.75c-0.43,0.29-0.8,0.6-1.08,0.92c-0.29,0.32-0.43,0.6-0.43,0.84
				c0,0.15,0.07,0.28,0.22,0.37c0.15,0.09,0.39,0.14,0.73,0.14c0.31,0,0.67-0.07,1.09-0.22c0.42-0.15,0.87-0.35,1.33-0.61
				c0.47-0.26,0.95-0.56,1.44-0.91c0.49-0.35,0.95-0.73,1.39-1.13c0.11-0.11,0.23-0.2,0.37-0.26c0.13-0.06,0.26-0.09,0.37-0.09
				c0.13,0,0.23,0.05,0.32,0.14s0.13,0.25,0.13,0.47c0,0.27-0.03,0.54-0.08,0.83c-0.06,0.29-0.08,0.55-0.08,0.79
				c0,0.2,0.04,0.36,0.12,0.48c0.08,0.13,0.22,0.19,0.43,0.19c0.21,0,0.46-0.05,0.74-0.14c0.28-0.09,0.55-0.14,0.8-0.16
				c0.22,0,0.37,0.06,0.45,0.17C27.36,19.96,27.4,20.08,27.4,20.22z"/>
			<path fill="#FFFFFF" d="M35.64,15.91c0,0.23-0.04,0.41-0.13,0.55c-0.08,0.14-0.27,0.21-0.57,0.21h-1.32
				c-0.77,0-1.4,0.02-1.88,0.06c-0.48,0.04-0.9,0.1-1.25,0.17c-0.04,0.24-0.07,0.48-0.08,0.73c-0.01,0.25-0.02,0.5-0.02,0.75
				c0,0.58,0.11,1.06,0.34,1.44c0.22,0.38,0.52,0.57,0.88,0.57c0.27,0,0.5-0.04,0.69-0.13c0.2-0.08,0.38-0.18,0.55-0.27
				s0.32-0.19,0.46-0.27s0.29-0.13,0.46-0.13c0.15,0,0.29,0.07,0.41,0.21c0.12,0.14,0.18,0.29,0.18,0.46c0,0.31-0.09,0.59-0.27,0.86
				c-0.18,0.27-0.42,0.51-0.71,0.72c-0.29,0.21-0.63,0.37-1.01,0.49c-0.38,0.12-0.77,0.18-1.18,0.18c-0.42,0-0.83-0.07-1.24-0.22
				c-0.4-0.15-0.76-0.39-1.07-0.73c-0.31-0.34-0.57-0.78-0.76-1.32s-0.29-1.2-0.29-1.97c0-0.14,0-0.28,0-0.41s0.01-0.27,0.02-0.41
				c-0.04,0.01-0.1,0.02-0.17,0.02c-0.11,0.01-0.25,0.03-0.4,0.05s-0.31,0.03-0.46,0.03c-0.27,0-0.47-0.05-0.6-0.16
				c-0.13-0.1-0.2-0.28-0.2-0.54c0-0.28,0.07-0.57,0.21-0.85s0.33-0.47,0.57-0.56c0.13-0.04,0.31-0.09,0.55-0.15
				s0.51-0.11,0.82-0.17c0.19-0.94,0.45-1.84,0.76-2.69c0.31-0.85,0.65-1.61,1-2.26c0.35-0.65,0.71-1.17,1.06-1.56
				c0.35-0.39,0.66-0.58,0.93-0.58c0.34,0,0.58,0.11,0.75,0.34c0.16,0.22,0.24,0.5,0.24,0.82c0,0.35-0.06,0.73-0.19,1.14
				c-0.13,0.41-0.28,0.84-0.47,1.29c-0.19,0.46-0.4,0.94-0.62,1.44c-0.22,0.5-0.43,1.04-0.61,1.62c0.41-0.04,0.8-0.08,1.19-0.1
				c0.39-0.03,0.74-0.04,1.06-0.04c0.29,0,0.58,0.02,0.86,0.05c0.28,0.04,0.54,0.1,0.77,0.2c0.23,0.1,0.42,0.24,0.56,0.41
				C35.57,15.39,35.64,15.62,35.64,15.91z"/>
			<path fill="#FFFFFF" d="M40.58,20.22c0,0.32-0.11,0.63-0.33,0.91c-0.22,0.29-0.49,0.54-0.83,0.76c-0.34,0.22-0.71,0.39-1.13,0.52
				s-0.83,0.19-1.24,0.19c-0.32,0-0.63-0.04-0.93-0.13c-0.29-0.08-0.56-0.22-0.79-0.41c-0.23-0.19-0.41-0.44-0.54-0.75
				c-0.13-0.31-0.18-0.68-0.17-1.11c0.03-0.52,0.09-1.03,0.18-1.54c0.09-0.51,0.19-0.97,0.3-1.39c0.11-0.41,0.22-0.75,0.33-1.02
				s0.17-0.41,0.2-0.42c0.11-0.06,0.27-0.12,0.46-0.19c0.2-0.07,0.41-0.14,0.63-0.2c0.22-0.06,0.43-0.11,0.63-0.15
				s0.34-0.05,0.44-0.05c0.15,0,0.27,0.04,0.34,0.12s0.11,0.17,0.11,0.26c0,0.08-0.05,0.25-0.14,0.5c-0.09,0.25-0.19,0.53-0.31,0.84
				c-0.11,0.31-0.21,0.62-0.3,0.95s-0.14,0.59-0.14,0.8c0,0.39,0.09,0.74,0.28,1.03c0.19,0.29,0.5,0.44,0.94,0.44
				c0.21,0,0.37-0.02,0.47-0.07s0.19-0.1,0.26-0.15c0.07-0.05,0.14-0.1,0.22-0.15c0.08-0.05,0.19-0.07,0.35-0.07
				c0.14,0,0.28,0.03,0.41,0.09S40.53,20.03,40.58,20.22z M39.3,10.72c0,0.13-0.03,0.32-0.08,0.59c-0.06,0.27-0.17,0.53-0.34,0.8
				c-0.17,0.27-0.41,0.51-0.73,0.73s-0.73,0.34-1.25,0.37c-0.14,0-0.27-0.02-0.38-0.06c-0.1-0.03-0.19-0.08-0.27-0.15
				c-0.08-0.07-0.13-0.16-0.13-0.27c0.01-0.1,0.05-0.23,0.09-0.4c0.05-0.17,0.11-0.35,0.18-0.56c0.07-0.2,0.14-0.41,0.22-0.61
				c0.08-0.2,0.16-0.38,0.24-0.54c0.11-0.2,0.27-0.33,0.46-0.41c0.2-0.08,0.41-0.12,0.65-0.12c0.11,0,0.25,0.01,0.4,0.02
				c0.15,0.01,0.3,0.04,0.43,0.08c0.13,0.04,0.25,0.1,0.35,0.19C39.25,10.47,39.3,10.58,39.3,10.72z"/>
			<path fill="#FFFFFF" d="M53.15,19.7c0,0.25-0.15,0.53-0.46,0.83s-0.7,0.58-1.17,0.84c-0.47,0.26-0.98,0.47-1.53,0.64
				s-1.08,0.25-1.57,0.25c-0.32,0-0.57-0.05-0.76-0.15c-0.18-0.1-0.32-0.25-0.41-0.44c-0.09-0.2-0.15-0.44-0.17-0.74
				c-0.02-0.29-0.03-0.64-0.03-1.03c0-0.15-0.02-0.28-0.07-0.37c-0.05-0.09-0.17-0.14-0.37-0.14c-0.11,0-0.33,0.12-0.66,0.37
				s-0.68,0.53-1.04,0.84c-0.36,0.32-0.7,0.61-1.01,0.88c-0.31,0.27-0.5,0.45-0.57,0.52c-0.07,0.06-0.18,0.12-0.32,0.19
				s-0.31,0.11-0.5,0.11c-0.21,0-0.43-0.06-0.65-0.17c-0.22-0.11-0.34-0.29-0.34-0.55c0-0.17,0.05-0.39,0.15-0.66
				c0.1-0.27,0.21-0.56,0.33-0.87c0.12-0.31,0.23-0.62,0.33-0.94c0.1-0.32,0.15-0.58,0.15-0.81s-0.07-0.41-0.2-0.57
				c-0.13-0.15-0.35-0.23-0.66-0.23c-0.24,0-0.47,0.06-0.7,0.17c-0.23,0.11-0.43,0.17-0.6,0.17c-0.2,0-0.34-0.08-0.43-0.24
				c-0.09-0.16-0.14-0.34-0.14-0.54c0.03-0.34,0.15-0.64,0.38-0.9c0.2-0.24,0.5-0.45,0.9-0.63c0.41-0.18,0.99-0.27,1.74-0.27
				c0.32,0,0.59,0.03,0.81,0.09s0.39,0.15,0.52,0.25c0.13,0.1,0.21,0.22,0.26,0.36c0.05,0.13,0.07,0.28,0.07,0.43
				c0,0.17-0.02,0.34-0.06,0.53c-0.04,0.18-0.09,0.35-0.15,0.52s-0.11,0.31-0.16,0.44c-0.05,0.13-0.07,0.24-0.07,0.33
				c0,0.13,0.06,0.19,0.17,0.19c0.08,0,0.28-0.1,0.6-0.3s0.68-0.42,1.1-0.66c0.42-0.24,0.86-0.46,1.32-0.66
				c0.46-0.2,0.89-0.3,1.28-0.3c0.18,0,0.36,0.01,0.54,0.04c0.17,0.03,0.33,0.08,0.46,0.16c0.13,0.08,0.24,0.18,0.33,0.3
				c0.08,0.13,0.13,0.29,0.13,0.5c0,0.2-0.02,0.37-0.06,0.53s-0.08,0.3-0.13,0.45c-0.04,0.15-0.08,0.29-0.13,0.44
				c-0.04,0.15-0.06,0.3-0.06,0.47c0,0.11,0.03,0.25,0.08,0.42c0.06,0.17,0.21,0.25,0.46,0.25c0.22,0,0.47-0.05,0.73-0.14
				c0.26-0.09,0.52-0.19,0.77-0.29c0.25-0.1,0.48-0.2,0.69-0.29c0.21-0.09,0.36-0.14,0.46-0.14c0.14,0,0.25,0.05,0.32,0.15
				C53.12,19.42,53.15,19.54,53.15,19.7z"/>
			<path fill="#FFFFFF" d="M77.22,7.51c0,0.79-0.24,1.64-0.71,2.56c-0.48,0.93-1.15,1.82-2.03,2.69c-0.88,0.87-1.93,1.66-3.16,2.38
				c-1.23,0.71-2.61,1.25-4.12,1.62c-0.31,0.07-0.54,0.09-0.7,0.07s-0.24,0.01-0.24,0.09c0,0.11,0.06,0.27,0.18,0.47
				s0.27,0.43,0.46,0.67c0.19,0.25,0.41,0.49,0.66,0.75c0.25,0.25,0.5,0.48,0.76,0.69c0.25,0.21,0.5,0.38,0.74,0.52
				s0.45,0.2,0.63,0.2c0.21,0,0.37-0.04,0.49-0.12s0.21-0.16,0.27-0.26s0.12-0.19,0.16-0.26c0.04-0.08,0.1-0.12,0.17-0.12
				c0.11,0,0.21,0.05,0.3,0.16c0.09,0.1,0.17,0.23,0.23,0.37s0.11,0.28,0.15,0.43c0.04,0.15,0.05,0.27,0.05,0.37
				c0,0.43-0.1,0.78-0.32,1.04c-0.21,0.26-0.47,0.46-0.77,0.6c-0.3,0.14-0.62,0.23-0.96,0.27s-0.64,0.06-0.92,0.06
				c-0.53,0-1.04-0.13-1.51-0.38c-0.48-0.25-0.92-0.57-1.32-0.96c-0.41-0.39-0.77-0.81-1.08-1.27c-0.32-0.46-0.59-0.9-0.81-1.32
				c-0.22-0.42-0.4-0.79-0.52-1.1s-0.18-0.52-0.18-0.6c0-0.31,0.1-0.62,0.29-0.94s0.47-0.5,0.82-0.56c1-0.14,1.93-0.37,2.82-0.69
				c0.88-0.32,1.7-0.7,2.44-1.13c0.74-0.43,1.41-0.9,2-1.41s1.09-1.01,1.5-1.5c0.41-0.5,0.73-0.97,0.96-1.43
				c0.22-0.46,0.34-0.85,0.34-1.19c0-0.31-0.1-0.55-0.3-0.74c-0.2-0.18-0.51-0.27-0.91-0.27c-1.02,0-2.01,0.24-2.96,0.73
				c-0.95,0.48-1.85,1.11-2.7,1.89c-0.85,0.78-1.64,1.66-2.36,2.66c-0.73,1-1.38,2-1.94,3.02c-0.57,1.02-1.05,2-1.44,2.96
				c-0.39,0.96-0.68,1.8-0.86,2.51c-0.08,0.17-0.21,0.33-0.39,0.47c-0.18,0.15-0.38,0.27-0.6,0.37s-0.45,0.17-0.68,0.23
				s-0.44,0.08-0.64,0.08c-0.17,0-0.34-0.04-0.5-0.1c-0.17-0.07-0.25-0.18-0.25-0.34c0-0.1,0.03-0.2,0.08-0.29s0.11-0.18,0.15-0.25
				c0.35-1.08,0.68-2.13,1-3.14c0.31-1.02,0.6-2.02,0.84-3.02c0.24-1,0.44-1.98,0.59-2.96c0.15-0.98,0.22-1.97,0.22-2.96
				c0-0.14-0.02-0.25-0.05-0.33c-0.04-0.08-0.07-0.14-0.12-0.19c-0.04-0.05-0.08-0.09-0.12-0.13c-0.04-0.03-0.05-0.08-0.05-0.14
				c0-0.13,0.08-0.25,0.23-0.37c0.15-0.12,0.34-0.23,0.56-0.33c0.22-0.1,0.44-0.18,0.68-0.24s0.45-0.09,0.63-0.09
				c0.24,0,0.43,0.05,0.57,0.16c0.14,0.11,0.25,0.23,0.32,0.39c0.07,0.15,0.12,0.32,0.14,0.48c0.02,0.17,0.03,0.32,0.03,0.46
				c0,0.11-0.03,0.33-0.09,0.66c-0.06,0.33-0.13,0.67-0.21,1.02c-0.08,0.35-0.15,0.67-0.22,0.96c-0.07,0.29-0.12,0.45-0.15,0.49
				c0.78-1.26,1.67-2.36,2.65-3.29c0.98-0.93,1.96-1.71,2.93-2.32c0.97-0.62,1.9-1.08,2.76-1.38c0.87-0.3,1.58-0.45,2.14-0.45
				c0.7,0,1.3,0.07,1.8,0.22c0.5,0.15,0.91,0.35,1.24,0.62s0.57,0.58,0.73,0.96C77.15,6.67,77.22,7.07,77.22,7.51z"/>
			<path fill="#FFFFFF" d="M83.26,16.67c0,0.27-0.07,0.51-0.21,0.75s-0.31,0.43-0.5,0.6c-0.2,0.17-0.41,0.31-0.63,0.42
				c-0.22,0.11-0.42,0.19-0.59,0.23c-0.04,0.55-0.25,1.06-0.61,1.56s-0.83,0.91-1.4,1.27c-0.57,0.36-1.21,0.64-1.91,0.85
				c-0.71,0.21-1.42,0.32-2.13,0.32c-1.19,0-2.05-0.22-2.59-0.67s-0.8-1.01-0.8-1.68c0-0.63,0.21-1.3,0.62-2.02
				c0.41-0.71,0.98-1.38,1.69-1.99c0.71-0.61,1.55-1.11,2.51-1.51c0.96-0.4,1.99-0.6,3.08-0.6c0.11,0,0.23,0,0.35,0
				s0.23,0.01,0.35,0.02c0.15,0.01,0.26,0.08,0.31,0.19c0.06,0.11,0.08,0.25,0.08,0.42c0,0.14-0.02,0.29-0.06,0.46
				c-0.04,0.17-0.09,0.33-0.16,0.47c-0.06,0.15-0.14,0.27-0.22,0.38c-0.08,0.1-0.17,0.17-0.25,0.2c-0.66,0.06-1.33,0.17-2.01,0.35
				c-0.68,0.18-1.3,0.4-1.85,0.68c-0.55,0.28-1.01,0.62-1.36,1.01c-0.35,0.39-0.53,0.83-0.53,1.32c0,0.22,0.06,0.42,0.19,0.59
				c0.13,0.17,0.37,0.25,0.74,0.25c0.73,0,1.36-0.14,1.88-0.43s0.96-0.63,1.3-1.04s0.6-0.82,0.77-1.25
				c0.17-0.43,0.25-0.77,0.25-1.04h0.02c0.38,0,0.69,0,0.93,0c0.24,0,0.44-0.01,0.6-0.02c0.16-0.01,0.3-0.03,0.41-0.05
				s0.24-0.05,0.38-0.07c0.14-0.03,0.3-0.07,0.49-0.13c0.19-0.06,0.44-0.12,0.75-0.19C83.22,16.41,83.26,16.53,83.26,16.67z"/>
			<path fill="#FFFFFF" d="M93.56,22.43c0,0.11-0.01,0.23-0.03,0.36s-0.05,0.27-0.07,0.44c-0.04,0.21-0.12,0.38-0.22,0.49
				c-0.1,0.12-0.23,0.22-0.38,0.29c-0.15,0.08-0.31,0.14-0.49,0.18c-0.18,0.04-0.37,0.08-0.57,0.13c-0.27,0.07-0.53,0.14-0.8,0.2
				s-0.54,0.13-0.82,0.2c-0.55,1.39-1.18,2.59-1.91,3.59c-0.73,1.01-1.49,1.84-2.27,2.5c-0.79,0.66-1.57,1.15-2.34,1.47
				c-0.78,0.32-1.49,0.48-2.13,0.48c-0.77,0-1.4-0.22-1.89-0.65c-0.49-0.43-0.74-1.08-0.74-1.93c0-0.8,0.28-1.56,0.84-2.27
				c0.56-0.71,1.28-1.38,2.17-1.99c0.88-0.61,1.87-1.16,2.95-1.64c1.09-0.48,2.15-0.89,3.18-1.23c0.03-0.24,0.05-0.48,0.06-0.71
				c0.01-0.24,0.02-0.48,0.02-0.74c-0.39,0.17-0.81,0.32-1.26,0.46c-0.38,0.11-0.8,0.22-1.25,0.32c-0.46,0.1-0.91,0.15-1.36,0.15
				c-0.32,0-0.63-0.04-0.93-0.1c-0.29-0.07-0.55-0.19-0.77-0.36c-0.22-0.17-0.39-0.39-0.53-0.67c-0.13-0.28-0.2-0.64-0.2-1.07
				c0-0.53,0.21-1.11,0.64-1.73c0.43-0.62,1-1.2,1.72-1.73c0.72-0.53,1.57-0.97,2.53-1.32c0.97-0.35,1.99-0.53,3.07-0.53
				c0.27,0.1,0.43,0.19,0.48,0.26c0.06,0.08,0.08,0.16,0.08,0.24c0,0.13-0.02,0.26-0.06,0.4s-0.09,0.28-0.14,0.41
				c-0.05,0.13-0.1,0.25-0.16,0.36c-0.06,0.1-0.1,0.18-0.15,0.22c-0.1,0.14-0.22,0.26-0.36,0.36c-0.14,0.1-0.31,0.15-0.5,0.15
				c-0.25,0-0.63,0.08-1.12,0.25c-0.5,0.17-1,0.38-1.5,0.63c-0.5,0.25-0.94,0.53-1.31,0.84c-0.37,0.31-0.56,0.61-0.56,0.9
				c0,0.11,0.07,0.2,0.2,0.25s0.31,0.08,0.52,0.08c0.29,0,0.63-0.05,1.02-0.14c0.39-0.09,0.77-0.22,1.16-0.39
				c0.39-0.17,0.74-0.38,1.06-0.62s0.55-0.52,0.69-0.81c0.03-0.04,0.05-0.08,0.06-0.13c0.01-0.04,0.05-0.09,0.12-0.15
				c0.06-0.06,0.16-0.13,0.3-0.21s0.34-0.18,0.61-0.27c0.2-0.07,0.36-0.12,0.49-0.15c0.13-0.03,0.26-0.04,0.37-0.04
				c0.24,0,0.41,0.06,0.5,0.17c0.1,0.11,0.15,0.25,0.15,0.42v0.1c-0.07,0.74-0.17,1.45-0.29,2.11c-0.13,0.67-0.27,1.31-0.44,1.94
				c0.48-0.11,0.9-0.2,1.26-0.25c0.36-0.06,0.66-0.08,0.88-0.06C93.42,21.91,93.56,22.08,93.56,22.43z M87.52,25.52
				c-0.84,0.28-1.65,0.58-2.43,0.91s-1.46,0.67-2.06,1.03s-1.07,0.73-1.42,1.1s-0.53,0.76-0.53,1.16c0,0.36,0.11,0.63,0.33,0.81
				c0.22,0.17,0.5,0.26,0.85,0.26c0.38,0,0.81-0.11,1.29-0.33c0.48-0.22,0.97-0.54,1.46-0.98c0.49-0.43,0.96-0.98,1.4-1.64
				S87.23,26.42,87.52,25.52z"/>
			<path fill="#FFFFFF" d="M105.08,20.29c0,0.17-0.08,0.37-0.23,0.61c-0.15,0.24-0.37,0.47-0.64,0.68c-0.27,0.22-0.6,0.4-0.97,0.56
				c-0.37,0.15-0.78,0.23-1.23,0.23c-0.46,0-0.82-0.06-1.08-0.17c-0.26-0.11-0.45-0.24-0.58-0.38c-0.13-0.14-0.2-0.28-0.23-0.41
				c-0.03-0.13-0.04-0.23-0.04-0.28c0-0.35,0-0.55-0.01-0.61c-0.01-0.06-0.02-0.08-0.03-0.08c-0.04,0-0.2,0.09-0.47,0.27
				s-0.62,0.39-1.05,0.61c-0.43,0.22-0.91,0.43-1.44,0.61c-0.53,0.18-1.09,0.27-1.66,0.27c-0.42,0-0.76-0.05-1.01-0.14
				c-0.25-0.09-0.45-0.22-0.6-0.39c-0.15-0.17-0.25-0.37-0.29-0.61c-0.05-0.24-0.07-0.5-0.07-0.8c0-0.17,0.03-0.4,0.1-0.68
				c0.07-0.29,0.15-0.57,0.23-0.86c0.08-0.29,0.16-0.55,0.23-0.78c0.07-0.23,0.1-0.37,0.1-0.43c0-0.13-0.06-0.21-0.17-0.26
				c-0.11-0.05-0.25-0.07-0.4-0.07c-0.17,0-0.35,0.02-0.54,0.05s-0.37,0.07-0.54,0.12c-0.17,0.04-0.32,0.08-0.44,0.12
				c-0.13,0.04-0.2,0.05-0.23,0.05c-0.15,0-0.27-0.03-0.34-0.08s-0.12-0.12-0.15-0.19c-0.04-0.07-0.06-0.15-0.06-0.25
				c0-0.32,0.13-0.62,0.38-0.89c0.25-0.27,0.56-0.51,0.91-0.71s0.73-0.36,1.1-0.48s0.69-0.18,0.95-0.18c0.15,0,0.32,0.02,0.5,0.05
				c0.18,0.04,0.35,0.1,0.5,0.19c0.15,0.09,0.28,0.21,0.38,0.36c0.1,0.15,0.15,0.34,0.15,0.58c0,0.5-0.06,0.98-0.19,1.42
				c-0.13,0.44-0.19,0.82-0.19,1.12c0,0.22,0.06,0.4,0.18,0.53c0.12,0.13,0.35,0.19,0.68,0.19c0.5,0,0.98-0.08,1.42-0.24
				s0.85-0.36,1.24-0.59c0.39-0.23,0.74-0.49,1.07-0.77c0.33-0.28,0.63-0.54,0.9-0.77c0.27-0.23,0.52-0.43,0.75-0.59
				c0.22-0.16,0.42-0.24,0.59-0.24c0.2,0,0.36,0.06,0.5,0.19c0.14,0.13,0.21,0.27,0.21,0.44c0,0.17-0.04,0.35-0.12,0.54
				c-0.08,0.19-0.16,0.39-0.25,0.61s-0.18,0.46-0.25,0.71c-0.08,0.26-0.12,0.55-0.12,0.87c0,0.56,0.29,0.84,0.88,0.84
				c0.29,0,0.52-0.04,0.67-0.13c0.15-0.08,0.32-0.13,0.5-0.13C104.92,19.91,105.08,20.03,105.08,20.29z"/>
			<path fill="#FFFFFF" d="M113.8,15.97c0,0.38-0.16,0.79-0.47,1.23s-0.74,0.86-1.26,1.26s-1.14,0.75-1.84,1.05
				c-0.7,0.3-1.43,0.5-2.19,0.6c0.01,0.1,0.09,0.18,0.23,0.25c0.11,0.07,0.29,0.13,0.55,0.18c0.25,0.05,0.6,0.07,1.05,0.07
				c0.38,0,0.7-0.04,0.97-0.14s0.5-0.2,0.71-0.32c0.21-0.12,0.4-0.22,0.57-0.32c0.17-0.09,0.35-0.14,0.55-0.14
				c0.43,0,0.65,0.18,0.65,0.53c0,0.35-0.14,0.68-0.42,0.98s-0.65,0.57-1.1,0.8c-0.46,0.23-0.97,0.4-1.54,0.53
				c-0.57,0.13-1.15,0.19-1.72,0.19c-0.69,0-1.28-0.07-1.78-0.22c-0.5-0.15-0.9-0.35-1.22-0.6c-0.32-0.25-0.55-0.55-0.69-0.88
				c-0.15-0.34-0.22-0.69-0.22-1.07c0-0.59,0.16-1.2,0.49-1.84c0.33-0.64,0.78-1.22,1.37-1.75c0.58-0.53,1.27-0.96,2.07-1.29
				s1.67-0.5,2.61-0.5c0.95,0,1.63,0.13,2.04,0.4C113.6,15.23,113.8,15.57,113.8,15.97z M110.82,16.5c0-0.13-0.06-0.21-0.18-0.25
				s-0.26-0.06-0.41-0.06c-0.21,0-0.46,0.06-0.76,0.19s-0.57,0.29-0.84,0.49c-0.27,0.2-0.49,0.43-0.68,0.67
				c-0.19,0.25-0.28,0.49-0.28,0.75c0,0.14,0.07,0.21,0.21,0.21c0.25,0,0.55-0.07,0.89-0.21c0.34-0.14,0.67-0.31,0.97-0.5
				c0.3-0.2,0.56-0.41,0.77-0.65C110.71,16.9,110.82,16.69,110.82,16.5z"/>
		</g>
		<g>
			<path fill="#FFFFFF" d="M6.1,27.15c-0.11-0.06-0.25-0.1-0.43-0.13C5.5,27,5.32,26.98,5.14,26.98c-0.65,0-1.18,0.2-1.59,0.59
				c-0.41,0.39-0.61,0.87-0.61,1.44c0,0.44,0.15,0.79,0.46,1.04c0.31,0.26,0.67,0.39,1.08,0.39c0.2,0,0.4-0.02,0.59-0.07
				s0.38-0.12,0.56-0.22L5.5,30.81c-0.16,0.07-0.33,0.13-0.49,0.16c-0.16,0.03-0.39,0.05-0.67,0.05c-0.54,0-1.02-0.18-1.44-0.53
				s-0.63-0.85-0.63-1.48c0-0.74,0.27-1.36,0.8-1.87c0.53-0.5,1.24-0.75,2.1-0.75c0.2,0,0.4,0.02,0.6,0.05
				c0.2,0.03,0.35,0.07,0.47,0.13L6.1,27.15z"/>
			<path fill="#FFFFFF" d="M9.79,30.95H7.15l0.78-4.47l0.68,0l-0.69,3.92h1.97L9.79,30.95z"/>
			<path fill="#FFFFFF" d="M14.26,27.03h-1.73l-0.24,1.39h1.45l-0.1,0.55h-1.45l-0.26,1.44h1.98l-0.1,0.55h-2.65l0.78-4.47h2.41
				L14.26,27.03z"/>
			<path fill="#FFFFFF" d="M18.37,30.95l-0.29-1.19h-1.7l-0.71,1.19h-0.69l2.7-4.53h0.25l1.11,4.53L18.37,30.95z M17.7,28.17
				c-0.04-0.16-0.07-0.34-0.09-0.55c-0.03,0.05-0.08,0.14-0.15,0.27s-0.12,0.22-0.15,0.28l-0.63,1.09h1.27L17.7,28.17z"/>
			<path fill="#FFFFFF" d="M24.49,31.05h-0.2l-1.7-2.32c-0.1-0.14-0.2-0.29-0.32-0.45c-0.11-0.17-0.28-0.41-0.49-0.73
				c-0.03,0.2-0.06,0.39-0.09,0.57s-0.06,0.37-0.1,0.57l-0.4,2.26l-0.68,0l0.78-4.47l0.47,0l1.55,2.14
				c0.26,0.35,0.51,0.71,0.75,1.08c0.04-0.24,0.06-0.4,0.07-0.47c0.01-0.07,0.04-0.27,0.1-0.61l0.38-2.15l0.68,0L24.49,31.05z"/>
			<path fill="#FFFFFF" d="M27.07,30.95l-0.68,0l0.78-4.47l0.68,0L27.07,30.95z"/>
			<path fill="#FFFFFF" d="M32.95,31.05h-0.2l-1.7-2.32c-0.1-0.14-0.2-0.29-0.32-0.45c-0.11-0.17-0.28-0.41-0.49-0.73
				c-0.03,0.2-0.06,0.39-0.09,0.57s-0.06,0.37-0.1,0.57l-0.4,2.26l-0.68,0l0.78-4.47l0.47,0l1.55,2.14
				c0.26,0.35,0.51,0.71,0.75,1.08c0.04-0.24,0.06-0.4,0.07-0.47c0.01-0.07,0.04-0.27,0.1-0.61l0.38-2.15l0.68,0L32.95,31.05z"/>
			<path fill="#FFFFFF" d="M38.96,27.23c-0.11-0.07-0.27-0.13-0.48-0.17c-0.21-0.05-0.43-0.07-0.66-0.07c-0.65,0-1.18,0.2-1.59,0.59
				c-0.41,0.39-0.61,0.87-0.61,1.44c0,0.44,0.15,0.79,0.46,1.04c0.31,0.26,0.67,0.39,1.08,0.39c0.2,0,0.38-0.02,0.55-0.06
				c0.17-0.04,0.31-0.09,0.43-0.17l0.17-0.97h-1.03l0.09-0.51h1.67l-0.31,1.79c-0.22,0.17-0.47,0.3-0.76,0.38
				c-0.29,0.08-0.61,0.12-0.96,0.12c-0.54,0-1.02-0.18-1.44-0.53s-0.63-0.85-0.63-1.48c0-0.74,0.27-1.36,0.8-1.87
				c0.53-0.5,1.24-0.75,2.1-0.75c0.27,0,0.51,0.02,0.72,0.06c0.21,0.04,0.39,0.1,0.52,0.19L38.96,27.23z"/>
			<path fill="#FFFFFF" d="M45.76,27.09c-0.23-0.09-0.5-0.13-0.81-0.13c-0.24,0-0.44,0.06-0.59,0.18c-0.15,0.12-0.23,0.27-0.23,0.46
				c0,0.18,0.04,0.32,0.12,0.42c0.08,0.1,0.26,0.22,0.53,0.35c0.27,0.13,0.48,0.29,0.65,0.49c0.16,0.2,0.24,0.45,0.24,0.75
				c0,0.39-0.15,0.73-0.45,1c-0.3,0.28-0.73,0.42-1.3,0.42c-0.41,0-0.75-0.08-1.02-0.24v-0.61c0.16,0.08,0.33,0.15,0.5,0.19
				c0.18,0.05,0.37,0.07,0.58,0.07c0.28,0,0.53-0.08,0.72-0.23s0.3-0.34,0.3-0.56c0-0.16-0.05-0.3-0.14-0.41
				c-0.1-0.11-0.28-0.24-0.56-0.37c-0.28-0.14-0.48-0.31-0.62-0.51s-0.21-0.44-0.21-0.72c0-0.37,0.15-0.67,0.44-0.9
				s0.65-0.35,1.06-0.35c0.37,0,0.68,0.05,0.93,0.15L45.76,27.09z"/>
			<path fill="#FFFFFF" d="M50.19,27.03h-1.73l-0.24,1.39h1.45l-0.1,0.55h-1.45l-0.26,1.44h1.98l-0.1,0.55h-2.65l0.78-4.47h2.41
				L50.19,27.03z"/>
			<path fill="#FFFFFF" d="M53.99,30.95l-1.06-1.96l-0.69,0l-0.35,1.96l-0.67,0L52,26.49h1.4c0.32,0,0.6,0.1,0.82,0.31
				c0.23,0.21,0.34,0.48,0.34,0.81c0,0.32-0.09,0.59-0.27,0.82s-0.42,0.38-0.73,0.48l1.16,2.05L53.99,30.95z M53.21,27.02l-0.63,0
				l-0.25,1.43h0.63c0.26,0,0.48-0.08,0.66-0.25c0.18-0.17,0.27-0.37,0.27-0.6c0-0.18-0.07-0.32-0.2-0.42
				C53.56,27.08,53.4,27.02,53.21,27.02z"/>
			<path fill="#FFFFFF" d="M57.57,31.01h-0.22l-0.98-4.53l0.67,0l0.46,2.13c0.01,0.06,0.04,0.23,0.09,0.5s0.08,0.46,0.09,0.56
				c0.07-0.14,0.15-0.3,0.26-0.49c0.1-0.19,0.21-0.38,0.31-0.57l1.2-2.13l0.68,0L57.57,31.01z"/>
			<path fill="#FFFFFF" d="M61.55,30.95l-0.68,0l0.78-4.47l0.68,0L61.55,30.95z"/>
			<path fill="#FFFFFF" d="M67.47,27.15c-0.11-0.06-0.25-0.1-0.43-0.13c-0.18-0.03-0.36-0.04-0.54-0.04c-0.65,0-1.18,0.2-1.59,0.59
				c-0.41,0.39-0.61,0.87-0.61,1.44c0,0.44,0.15,0.79,0.46,1.04c0.31,0.26,0.67,0.39,1.08,0.39c0.2,0,0.4-0.02,0.59-0.07
				s0.38-0.12,0.56-0.22l-0.15,0.66c-0.16,0.07-0.33,0.13-0.49,0.16c-0.16,0.03-0.39,0.05-0.67,0.05c-0.54,0-1.02-0.18-1.44-0.53
				c-0.42-0.36-0.63-0.85-0.63-1.48c0-0.74,0.27-1.36,0.8-1.87c0.53-0.5,1.24-0.75,2.1-0.75c0.2,0,0.4,0.02,0.6,0.05
				c0.2,0.03,0.35,0.07,0.47,0.13L67.47,27.15z"/>
			<path fill="#FFFFFF" d="M71.61,27.03h-1.73l-0.24,1.39h1.45l-0.1,0.55h-1.45l-0.26,1.44h1.98l-0.1,0.55h-2.65l0.78-4.47h2.41
				L71.61,27.03z"/>
			<path fill="#FFFFFF" d="M75.52,27.09c-0.23-0.09-0.5-0.13-0.81-0.13c-0.24,0-0.44,0.06-0.59,0.18c-0.15,0.12-0.23,0.27-0.23,0.46
				c0,0.18,0.04,0.32,0.12,0.42c0.08,0.1,0.26,0.22,0.53,0.35c0.27,0.13,0.48,0.29,0.65,0.49c0.16,0.2,0.24,0.45,0.24,0.75
				c0,0.39-0.15,0.73-0.45,1c-0.3,0.28-0.73,0.42-1.3,0.42c-0.41,0-0.75-0.08-1.02-0.24v-0.61c0.16,0.08,0.33,0.15,0.5,0.19
				c0.18,0.05,0.37,0.07,0.58,0.07c0.28,0,0.53-0.08,0.72-0.23s0.3-0.34,0.3-0.56c0-0.16-0.05-0.3-0.14-0.41
				c-0.1-0.11-0.28-0.24-0.56-0.37c-0.28-0.14-0.48-0.31-0.62-0.51s-0.21-0.44-0.21-0.72c0-0.37,0.15-0.67,0.44-0.9
				s0.65-0.35,1.06-0.35c0.37,0,0.68,0.05,0.93,0.15L75.52,27.09z"/>
		</g>
	</g>
</g>
</svg>
